<mxfile host="app.diagrams.net" modified="2020-10-15T14:31:46.989Z" agent="5.0 (Macintosh; Intel Mac OS X 10_14_6) AppleWebKit/537.36 (KHTML, like Gecko) Chrome/86.0.4240.75 Safari/537.36" etag="iPbfkBO7SaBLOuSVEnhK" version="13.8.0" type="github">
  <diagram id="l6WAfunSJ5s_3PR3ZteN" name="Page-1">
    <mxGraphModel dx="601" dy="430" grid="1" gridSize="10" guides="1" tooltips="1" connect="1" arrows="1" fold="1" page="1" pageScale="1" pageWidth="827" pageHeight="1169" math="0" shadow="0">
      <root>
        <mxCell id="0" />
        <mxCell id="1" parent="0" />
        <mxCell id="W6YZINmuGr9k4Em6WrP_-1" value="" style="shape=image;verticalLabelPosition=bottom;labelBackgroundColor=#ffffff;verticalAlign=top;aspect=fixed;imageAspect=0;image=data:image/png,iVBORw0KGgoAAAANSUhEUgAAAgkAAAGHCAYAAAA6MMHNAAAgAElEQVR4XuydB3gURRvHf3t3ufTe6L0jICBVOihNAQFBURCkiBUV/VSsiF0RFGxUBQRFRWkiHUGKFOm995Lec233e3b3LrmQAAcEEsjs8yhJbnZ25jdzO/955513JEVRFMQlCAgCgoAgIAgIAoLARQQkIRJEnxAEBAFBQBAQBASBvAgIkSD6hSAgCAgCgoAgIAjkSUCIBNExBAFBQBAQBAQBQUCIBNEHBAFBQBAQBAQBQcBzAsKS4DkrkVIQEAQEAUFAEChSBIRIKFLNLSorCAgCgoAgIAh4TkCIBM9ZiZSCgCAgCAgCgkCRIiBEQpFqblFZQUAQEAQEAUHAcwJCJHjOSqQUBAQBQUAQEASKFAEhEopUc4vKCgKCgCAgCAgCnhMQIsFzViKlICAICAKCgCBQpAgIkVCkmltUVhAQBAQBQUAQ8JyAEAmesxIpBQFBQBAQBASBIkVAiIQi1dyisoKAICAICAKCgOcEhEjwnJVIKQgIAoKAICAIFCkCQiQUqeYWlRUEBAFBQBAQBDwnIESC56xESkFAEBAEBAFBoEgRECKhSDW3qKwgIAgIAoKAIOA5ASESPGclUgoCgoAgIAgIAkWKgBAJRaq5RWUFAUFAEBAEBAHPCQiR4DkrkVIQEAQEAUFAEChSBIRIKFLNLSorCAgCgoAgIAh4TkCIBM9ZiZSCgCAgCAgCgkCRIiBEQpFqblFZQUAQEAQEAUHAcwJCJHjOSqQUBAQBQUAQEASKFAEhEopUc4vKCgKCgCAgCAgCnhMQIsFzViKlICAICAKCgCBQpAgIkVCkmltUVhAQBAQBQUAQ8JyAEAmesxIpBQFBQBAQBASBIkVAiIQi1dyisoKAICAICAKCgOcEhEjwnJVIKQgIAoKAICAIFCkCQiQUqeYWlRUEBAFBQBAQBDwnIESC56xESkFAEBAEBAFBoEgRECKhSDW3qKwgIAgIAoKAIOA5ASESPGclUgoCgoAgIAgIAkWKgBAJRaq5RWUFAUFAEBAEBAHPCQiR4DkrkVIQEAQEAUFAEChSBIRIKFLNLSorCAgCgoAgIAh4TkCIBM9ZiZSCgCAgCAgCgkCRIiBEQpFqblFZQUAQEAQEAUHAcwJCJHjOSqQUBAQBQUAQEASKFAEhEopUc4vKCgKCgCAgCAgCnhMQIsFzViKlICAICAKCgCBQpAgIkVCkmltUVhAQBAQBQUAQ8JyAEAmesxIpBQFBQBAQBASBIkVAiIQi1dyisoKAICAICAKCgOcEhEjwnJVIKQgIAoKAICAIFCkCQiQUqeYWlRUEBAFBQBAQBDwnIESC56xESkFAEBAEBAFBoEgRECKhSDW3qKwgIAgIAoKAIOA5ASESPGclUgoCgoAgIAgIAkWKgBAJRaq5RWUFAUFAEBAEBAHPCQiR4DkrkVIQEAQEAUFAEChSBIRIKFLNLSorCAgCgoAgIAh4TkCIBM9ZiZSCgCAgCAgCgkCRIiBEQpFqblFZQUAQEAQEAUHAcwJCJHjOSqQsIgR+afM68YfP8tjmMfhEBIMEiqIgSZIbAQXtg0te+ueuVHM6jaT95GfxKxZGjmxy3J9HngrE7jnO751GMvj4FD31lR59mTwVRS+VIknO0jsz0z5Q66P+rl4SaefimV7/RXovH0VmfCrbJy6h/ZRhWrJcPHKVSQYMRaTHiGoKArcvASESbt+2FTW7BgKxO47yR5dRBJeLplzHejR45UFt4Dw6fyOHF20hsFwUDV/qQXpcEgd/WsOdz96PbLOz9cv51H/xAbaO/YMa/Vqz+bM5+ESGUm9YF3ZOWMS6936l9uNtuOvlHjisNrZ9/SeKw0GdJzvhXywMS0IqW8fPJ+NcIpV7302pFrWdekAh43wie39cRb0XuvHf539Q7t667Ju9lrov3M+BmX9TvEk19s/6hxaf9ue/rxeQfDyGek93JqhsNA6rlY0f/UL6hVSq97qbEi3uYO/0FYRWK02xBpU5PHcDJrOJsh3qk3j4DLsmLyGodCS1n+hEWkyiJhLunzWcvbP+5uTfe2g4vBs1B95L/K7j7Jy6hKCykdR9rpumLZKPnOO/r+Zr2qDh8B74FQ+7hhYQtwgCgkBhIiBEQmFqDVGWAiewYdQsYnefpGy72uydsYpeqz4idudRFvT4mDbfPMm2rxZiCvSl4Ws9mf/ABwzY+w22tEwmV32SJ05OYVL5wQSXDqN8h7vY9t1f3DfzJdLiUln25Fc0erM3NR5uwc9tXqNc2zvBYODIgk30XvUha0b8gDqZL9++HqtemkKvZe8RUrmExiN293FUS8Tgo5P5rlR/AkuGEVa5BI1HPsIvbUfgHeRHuba1STx6HnNwANF1y/PfV4vou2UsC/t8QlDpCCp0bcLKp7+lx/L3WP7U11Tq1og6QzuzZNA4zIHe1H32fuZ0fpc6T3bk1PId+JYIpenbD2sioeuvr3Dkz/84OHcDLT96jOByxfjtvndo/HIPjq3YijUxkwcWvc2kioNpPWYgqadi2TJuIQN2f43RbCrwNhUFEAQEgWsnIETCtbMTd95mBFSLwPS6w6gzpD3RDaow78GP6LnoHSSziV/avUmJJtUo2bQqNfq2ITUmhXnd3uPxfbpImFJtKENOTGVihcHcM24I5Ts3ZFrdYdR9qj21hnTi25L96bP2E+J3H2fJ0G8YePg7jGYvfmw0nIavdOfkql2cWLWLsq1rUaF9XUq3r4/BqJvr45wiYeDRyUwoPYCqPZvS+oshxB86x6/tXufxXV9jMBuZWH4Qdwxuh8FoYuekZbT67DEO/f4vF3YcpUzrOlToWJcy7evze+d3qNy1MbWf7OQUCWb8i4Wz/5e1VOzakNQTMRxdup0+6z5meoOX6LV8FElHz7Nh5E/02fAZa1+fxtmNh+i59F0yYpOZXv8FBh2ewPfVhhJYOpLizWtQvVcLwmuWufyKzG3Wf0R1BIHbkYAQCbdjq4o6XROBY4u38Nfj43Is+lfu3phWnw8i6dAZLmw9yn/j5mHy86HdN8/w+33vMPDAd1iSM/jhjqcZfHyyJhK6zXqZqMZVtcGzzqB7tMFYFwkfE7vjCMuemcigQxMwmE3Mavoy9Yd3pVzrO7mw8ygnVuxg+6SldJj4FOU7NcyyJPze8V0GHZvEd6UH0PL9R6jevx1xB8/xR+eRPH7gG2SrnUnlBtP6q8GYfMxaHcIql8IvKpiY7Uc5tXq3Ztm4/6dXWD9qFmXb1OGul7uzqN/n+IYH4BMVwtEFm2j0Ri9QJJAUomqVZ0aj4fRa8T6JR87x77s/8fD6z1jzymTObztOz79GkhGfyvR6wxhybArp5+O4sO0YB2av4ejirQzY9y3mQN9ragtxkyAgCBQOAkIkFI52EKUoBARU07s9LZP2P7yglWbX1KWa70D7755m8YBxtPx8AEcWbiJ+zyk6/PgiMxq8RM1HWhC37xQxWw4z6ORUJlUYTFdNJFRh+l0vUntgO+o82ZmJZQdSsUsDGr72IL91eJvyHeth8vJi789reHjNx6x4fgK+oQGUv78BK5+bxD3fPUmZtnWdIuEov3d+j4GHJzGx9ABafPQI1frdQ+LBs8zpPJKBB77VHAlnt3oFv+hQyrSozaZx83h4+Qcs7DuayDrlKN+xPiuGTaTT9BfZ9uUC4vaepFyHehyYs45y7etSe3B7fu88klqD2pNyIobM+BTajBvKtPov8uDyd0k9E8+ywV9Rb1hnSjarydwHP6bBC104t/EAiUcv8ODyUUyq8ATNP3gEg5eJv1/+gcf3f4OXv08haFlRBEFAELhWAkIkXCs5cd9tRUAdZHdPWUbkneWJqldR8+5PP5/AoT82ULlnUy5sPsjZTYfwCQmgWp8W+IQGcvC3f0g4cJYqPZpycuUuag9tz/aJi6l4f0MCioexZ/pKomqVJeLOChyat4GkIxeoNfAeMuOTOTR3A4oDKndrTFD5aDJikjjw61rNfB9dvyLlOjbI2gWRGZusDea1Brdn57d/UapFDcJqliUjMZXDv67njkH3aG2hLpfsmrocS0oGpZpXp1jDqtgS09g9cxXW2FStbuXva0BmTJL2N+9gPwKLR2D0NlK6TW0ubDvKiaXb8C8RRrmO9TF5e7Fn2kqq9L4bk7eZ/T+tRjKaqNG/Nec37OfE37vwjQiixiOtMHqbid9zgkMLNiMrDip2qEfknSpHcQkCgsCtTECIhFu59UTZ85nAxfv48t6SqODaDuna5qjg2lCYe3/i5fPM+anrt6va4+jG4NL35f7k8s/IveVTfYwHfPK5RUR2goAgULAEhEgoWP7i6YLANRPQIhrkit9wzdmJGwUBQUAQyEVAiATRKQSBW5SAYj+nB3QyRiJJ6k6Ia7VA3KIARLEFAUHghhMQIuGGIxYPEARuDAHbmU4YkDGW+Ms9UOKNeZjIVRAQBIokASESimSzi0rfDgTspzsi4cBYcvEVQkTfDrUVdRAEBIGCICBEQkFQF88UBPKBgP3cY1o8A1P0D87cLneWRD48UGQhCAgCRY6AEAlFrslFhW9tAooz2JGrFooWzlm99IOjhFC4tdtXlF4QKFwEhEgoXO0hSiMIXAUB14mNQhxcBTSRVBAQBK6CgBAJVwFLJBUEChUBR7IeQdkQVKiKJQojCAgCtw8BIRJun7YUNSliBOynO6BIDrxKLC1iNRfVFQQEgZtFQIiEm0VaPEcQyC8CqhOCJGE71QEMLpEgoygSku6YIC5BQBAQBPKFgBAJ+YJRZCII3HwCtjPdkdTdDcV/V09uAPSjpcUlCAgCgkB+ERAiIb9IinwEgZtMQFFkZ6TFm/xg8ThBQBAoMgSESCgyTX3jK3rxoUB5HxKUXQ79c/X33CZy1W/foSjYUbApMlYUrIpCgsPOBYeV87KV8w4r8bKDZNlOouwgVnGQrjiwKQpWIFNWyJQgWDIQCPhJBvwNBkINBiIMZsINXkQYTYQavChl9CbC6IW3ZMALCS9J/894mS2FWfUrwGjIV2J841tdPEEQEARuZwJCJNzOrVso6pZtBs8aS50/qJ+oAkAd1NXBfb89k12WVDbb0vjblq6FGjapA7Wkn7GoDt7lDSYqmcyUMZopZvQhTJIIlrzwMxkJNBgJVIxarQ2ShFkyov6WiUym4sCCjFV2kCY7iFMcxDqsxDnsnJFt7LdZ2SOrKSTsmtBQDfgyZQ1eNPPy505vf+p7BxFhMOGlCglJwuAUELJ6KqTmJiA5T0+4CaZ/NVyCYtNElqKWRNLrLS5BQBAQBPKTgBAJ+UlT5OUk4BwkZQUM6sHKBhyKAzsSZ+wW1mYmstKSynxbOoESmBWJAEmimdmXxuZA7vAOoJrJVxMImp7Q9vm5WSDcbQ/us3jnzzkm9loZXIO3mofq4Kdm51y/V0f3i6wF+jP1/8Xa7eyyp7PFkswCSwoHZDveKJqVo6d3MB39QmhiDtKtDwYDem1vjvOg/XRnkOyYSiwWZzeI754gIAjcEAJCJNwQrEU7U3V8VWfX+yxpLMyMZWZGCvGKQxs8a5jMdPUOorl3CNW8/bIH1IvH6iuY8PP8OI8/5jDHOwd+fXOAcyB37hRQW8wlDlRN4jpQUXL7PLtVZWRFYoM1iXlpsfxsTcMmK3gDzwdE8pB/BGFGs6qPbshuA1c11S2Q6gFPhpJ/CafFov2VE7UXBG4YASESbhja2y/jy61/q5/9nhHHpLTzHLDZsEjQ0OTDY37htPUJx894s+bXBcNdHbjtiszPqef5MjWGs8gEIvFOUDG6+0VpVhH36+Kll2sptYiTcC3UxD2CgCBwNQSESLgaWkUorbsgyMOijwOFBWkxfJEaw2FZXRuXeNInmB7+xShjMmuDokGbkhel4wT0ZRaVnSxBvN3OhLQzjMtMwl9x0M8njOFBJfFX/QfUFRTnMooruLJnixRuZzcoNg2vgknHLGIkFKFvqKiqIHBzCAiRcHM437JP0QWCPvhtsyQzLvUc/9gysSoyg/xC6eUfRWnJjLdmKXANd+ravH6foqhOdbds9a+q4JqwUik4XSjU39XKy4qiOU7+kR7LR2kXSFPgWb8wngwsjrfmd2G4xggHLgfJm+AoeVUkRGJBQBC4XQgIkXC7tOQNqEeGIvNb6gU+S48lXXZwl5eZwf7Fucs7UNtOqO460AZCbVqsTmkdupe9y/SQ7QF4A0pXCLPMyyfCrZgqIocikyw7mJl2nvFpcZQ1mvkkpDS1zQHXVKEC3H15TeUVNwkCgsCtRUCIhFurvfK1tKonvr65MPs6bc/km9Rz/GlNxSI7eNw/jJ6+UUQZvfCVRES//GwAiyKz25bOG4knOaXYedYvkkGBUdk7L67wMPvZh0GSMRX7OT+LJfLKLwJCweUXSZFPARIQIqEA4d/8R7utZ7t58++1pfFZyjk229PxRWJ4YHFamAMJMxrxEvvvb2gzqeOIao25INv4NOkEc2wZDPQJ5tWg0lnOjrnGmqyzG9qDQXYe8FSQZzcUsuUOtZurAvgmrXPl3kGjf7n0MqitJ8T1Df0SicxvKAEhEm4o3kKWudsev12aMDjDBnsG5SQTzwUWp4HZn3CDCYNmMVD0eALOJYWb9cItZMRufHEUBUULFqXzjpVtTE49z5SMRAb6hvByUCktMFRe18UHPBXUYKQPkuqoaMgreOZVM8yfVaqCFC5yvrG4anjiBkEgnwkIkZDPQAtzdvtt6Zow2GbLpKTBxJMB0dQ3BxBu9FKns3nMvHRHxBxxBQpzBW/JsrnsBM5BzflrrMPGuNQzzMtM5s3AYjzgG6E5QbrLBdl2Uju7QTKVLNCaO6w25vf4mODKUbT+fEg+lEUhMy4VS1IqwRWKX1N+uyYv5vjSbXT+6ZVruv9ab7qw5SBrR86k2+9vkXjoNN7BAfgVC7nW7MR9gkCBExAiocCb4NoK4PKkv1Jwv9N2K+NTz7LamkqQZGBoQBSNzQFEGb2vdOu1FUzcla8EjtgzeDPpJImyzJchZalg8skh5grD2Q2xO4/wa4d3kYwGnjg+2WlNuMj6cZWBIXZMXMKB2WvouXRU3jwvs96vfpR4+Azp5xMp2bTGJdrjajaeXjrS18X8jy/fxqJ+Y3ni5BSm1XyWKj0b0WRUv3ztEyIzQeBmEhAi4WbSzu9nOd9d6tqny86rmq3VXQkzUmOYnZlImmxjQEAx2nsHUcrkre7iL0qBC/KbeIHk50BmTUYyLyad5H6fEEaGlMoRrrqgT4P89Z4RBFWI4siCbXT74zWKNajKqVU7WfbstxgNEsYAXx6Y9yarnp1AcPlImr7/GBve/5n4Xcdp+FoPFj4yhvAapTm36RCRdcrSeERvFvb5FLvFTulmNWg9/gn+fOQzEg6exhwYQJO3elHh/oYseOhT4g+cQk6zUbFbQ1qOHpTVPhs/ns2RP/6lx6qP+an+C4TWKEXMjiMUb1AV3/AATqzeQ/MP+mrlPPD7BkxmE41e60mVPq1Y/NgYYrYfxWGxUfWh5tQadC+/dxjJA4vexjs0gJ8avUTb74YSXLkUC3p8QPKpOILLRdPjr3c4u24vCx4dw10v3s+WsfMwennTZERPohtWYfHgL0i/kERQ6Sg6zRyOl5+ZP7p/gD0lHbsFWn0+gHL31iuQPiYeKghcioAQCbd039D3J7j2HP6dkcDEtFg2WtMZEBBGV58wqnk5Qx9L6iFEOc9AuKWrXgQLr552+VHSaTba05gUWp7SCW9ouxuMEWOcZzfocRlu5mVJSuP7O56m35YvWPnCBBIPnaHPv2OY1+M9Uk/G0X3pe5xYvIWSLWuz+PFxhFeMouWXQ1g74gcubD/O3e/24ff736PD98NQHA4WD/qKh9Z8yPEl2znw2z90XzSS/8b+zokl27nvtxEcX/If60fNoufS95le53nafjmA4s1rcWL5Tqr1aZFlHVv7znQO/fQPD28fz/flB1P/5e5U6FyfVf+bQtyWY3Sa/RL25HSWPT+Jh1Z/xPnNB1nx7AQeXDqKmc1eodmoPpRqXZuYLYco1qgqsxq9zMMbPsE3PJDJlYbSeeYLbP1qISGVitPkrT7Mf+gT/CMDqf5Iaxb2HcvgY5OYVmcYVbs3oPG7/fi5+atU6d6Y2kM7sWTwl3j5mKnUrTFLnvyWHgvfxpqchmQwUKLZpSwfN7NVxbMEgWwCQiTc4r3hpMPCN8nnWWFN5g4vb/r6RdHQOxBf7XjAi0RBnucQ3OIAiljxVc+FvzOTeCbhOBsd/8NXAkPJRQVmHTowezUrh39Pmda1Sb+QQMzO4ww+OpG0swmsHTGNE6t3E1q+GPdOHcaKYd8RVjGaVl8MZc1r3xO34zhNRz3MnPs/oP+2L5AdDqbXe4GeS0dyZt0BDsz+h+5L39Vm9l4B3rT96ikSj5zll9avM+joJHZNXcL2bxZjTUqnVIua3Dv5uazesOHtaez7eS19to9nSsVB9NsyFr/oUH7v8h7+kQHcO/l5tn45l82fzyWwfKR2nz3NQqfpL3Hmnz1s++5PbIkZlOtYn7uGd+PHJi/zyLrP8FFFQtUn6DxtGIseG4dvVCBewX5gtWMwG2nyZh8W9h3DkBNT+OGOp6nWswlNRvVlao2n6frba4RWL82Obxey/eu/6PPvaP4dNZP9v6zDK9CX+sO6UOOxtkWsR4vqFnYCQiQU9hZyK5++UKDgABZmxPFDWjzH7JkMCSjGfT7BlDSpRwx5cIkVBw8gFcYk2Q133mHFfLYz3sj4lVruXES6qGFvcDsrDpnv6zxN1J3lKXvPXZqlas0b02j5wSPE7T5JyZZ3UPLumvzU6lXqDLyHk2v2kHY+gZ5LRrGg9yfINhvNRvbhty7v03/HOBSHwrS6w3hwyTucWneAvT8so9fqj9ny2RyOL9tOjyXvcmTBRv55fQa9Vr7Pundm0nrsEM6t38v8R0Yz5NjkrEZb984MDv60mj7bv2JyhcE8tv0LfCOC+aPr+4SUDafVl0M5tWoHfz42hkc3jUGty9bx86kzuAMbP/qNFqMHcGLZNpY9PYGH13/CrMb/o+24QYRVLcXse9/mvh+fZ9PoP/ANCaDDtJfYO2slis1BYOkIzZKg+iR8X+tZyrSsTtuvn2Fmgxeo1qcV9V7oyp+PjsZoMlDtkVacWb+Hhq/2Zs1rU4nbdYIei98tMMFXGHu8KFPBExAioeDb4BIlyP2GP2XL5Ku0Cyy3JHGnOYCBfuE09A5yhkO+uWbmQoutCBXMkfkfSzMT+NpektlhVfA2SDmXlG6wSEg9HcfMRi/Rd8tYfKKCNIfK+Q9+QMz2Y9wzeRjLB48nuHw06XHJdPn1NVJOXmBh388xeZmIqF0GW7qVZqMeYc5979N/53gUu8wP9YbRa8k7WNOtLHz4UyJrlePeSc+xdMg44vefQfW/aPXZAMq0q8vyp74hdudx7cTR4o2q0eaLwVlLby5LwiPbv2JS+YH03/ElvhFB/K6JhAhafzlUS/vPiGns/2WtNpO/c2h77hjYgZXPTdCWH1TlVbplDZp9PIAlg7/g2JLtRN9ZnnP/HeG+H18guGIp5vf+CEeqFb/iIXSc9iJxu4+z8NExPHFqCps/+40tXy6gyYgHKd6sOn899oXWPt6hfnSYPhwvbxMLHv5UEwUZMYk0frM3VXo2zz6CtAj1ZVHVwktAiIRC1Dbu73SX77UaxndlZiI/ZMRx0JpJ34AoevqGUsxo1kp+g8eBQkRHFOViAi6H1amp5/guLYZFkVUJk/R+gRbE50YKRy1akNO2JWtbMTUHyizXWEVbPrAlZWAO9UcyqMtf4LDateIZzCY9BofqVZNVVDWN6lehV0GW1RtkJC+jFhnUmpyOV4CvMy+99rbUTO1bYA70vai+rm9Qzi28rvM09EfoaVSxYjQbMZhMWRYZa0qGVj6T+jxnwCtbSgbmID8t+JX7SePWpFS8QwKzo5E7P1dLKNsdGAxGjY/6PEtSOuYQP2ekU52hJTENk583Bm9TrgiootcLAgVNQIiEgm6BSzw/wWFjenocv6bHUdHLm36+EbTwCdbOS7jocIRCWgNRrJtJ4M+MOIYnnWZFZFWKG7xvrD7IVTFn4C39aMtcg3XuOBt5CZi8JLJTROiqJ6ckdiV3BhFVvxMXhxj3TEI7xYTmv5O1XSg3P+2j7DLmFBsXAXErmy54ctbXtWyYq05C8t/Mr4x4locEhEjwENSNSZZ7DXmfLY2J6TGstKRwv08w/fwjqWj0vckv/RtTW5FrPhBw6zKO+E9QJAVTqB4waE1mIo8nHufviGqUMLoJhax7brR1IY/6XZezbAGUNx+aKLcsyJ1pXuem5NOjRTaCQL4SECIhX3FeITP3oxOyZiZgV2CNJYkpaRc46bDSzy+C3n6R+BuMN7N04lm3CgHn2Gk/3UFzY/UquTRrtro6M5EhiSf4J7IqEapQEJcgIAgIAtdBQIiE64B3dbdmmzJdOxNTZAe/ZyQwNe08xY1eDPCLoJ1vqGY2dTNs3uC15aurhUhdeAjYT3VCMdicBzzpClS1LMxPj+OjlHMsjaqGv2Qq1KtTt66toPD0A1ESQeBGEhAi4UbSzZW3/kqMcdj4JSOGaWlx1DX781xANNW9/HOmFm/Pm9oyt+LDHGmLNEEp+XfQiq9LS9WoIPG5eniXNYUfw6vgpX14I50Yb0V6osyCgCDgCQEhEjyhlE9pjtsz+SE1hgWWJDr4BPFMQDGiDOab4ImeTxUQ2RQKArnPa7jY4U4XC33jDlHLy1c7SbJwSwS9/HLGepTMzRhCnrlpxzwXigYVhRAECjEBIRJueOMo7LNl8F3qedZb03jYL4zBAdH4Saq/gTAX3HD8V/mAbD+73G2jbvFDSUVRMkBORZHT1Y15SIqMovqPKGYMxgBk1G166rY/1TrkGp7dXdWuvd3dBYIaH0B1uNeNBDllgOZ9DzS9sIexIaVpaA4s5AOvgiPpK+TkKcQViaIAACAASURBVJhKbQb1dMurbDuRXBAQBPKfgBAJ+c80a/DfaU3TzL4nHXb6+4XxkH8kJnW/dNYWKf0Nf+1Dxg0pvMg0BwEHiiMR7GfAcU7dva/u8ne2sdpy6s/qpf7ddbn+BoqpJJKxBJIxEHA5ouZPizuSZ2jlMAb1dT445+Y69Y/HbJncE7ePjVE1CTVoCw+F9FJFwrfIyZMxld6oxVsQIrqQNpUoVpEiIERCPja3vncatlpTeDf5NEkyDA+MprNPqNsszm2AyJ+xIh9rILLSCGizcFUcnEey7UdWrJcIcqPOddX/3AWCmoFLJKj5aPN9JMmM5FUDTOo5Aa77ro+37UxHjIp6dsOfegyiS/gdfJZ8kqM2K+PCK1CY5+dK5hZkyzaMwY8LZ93r6xribkEg3wgIkZBPKNVhYps1lf8lnNCsBSOComnhE5pPuYtsbh4BBcVxASy71CN/cszQr7oMbjECtOiCioIieWMw1wHj9fcN++lOKJINr+LqFsg8Ag662evbxOzlk6BS3OWtWjQKz5Xb9lF4yiZKIggIAqrLnGvxUtC4MoHcsY+0F/92ayrDEo7ia/DivaAS3KWepyC8ya/Ms1ClULcQ2pEtO5HkmCuU7OLlhmxLghqbX5HkPGb26jKTOt3XwwlDCaAiihVkmwPsDi2Er3p+gXrYkKKGJJZVHwiX1d3pfKD2K6OEwWhETp+BZDRhCn9MD3Ps7aWF9s2xk8EZPXmvLY0BCYf4O/IOvCU1TPClqlg4zFuuQ9BFFLFC9SURhSmCBIRI8LTRnbvL9BmbjEOR2G1LY2DCQQIMPnwVXIYaZn9tINBecFose7HzzFO8BZtOQZFTwLIZFNsViuK+xGBAcg36soRsUBcWwJFhh3QZe6YDOd2O5YQF6/EMMo6lknEyA+vpDBxJCpKPOth7gdmkDfqYDNq/ilHtNwZt1SI71LDu/6A6ScoOGWQ1FLIDxargcNjAIqPYZGSLDZ9iQXiXDcO3XCQ+laPwqVIMU6g/Q6yn6RUezX3hxXJZHvSgxu7RvtQkN1cwyNa9KJYDGAK7aI/OyyGzYPuJeLogUPQICJFwlW3uUBT22jJ4POEIViP8HFSeqqo4cLtu7qv1KisgkudqKcURB5ZNmr3edULA5TEZUGRZEwByqgNbvJ30LSkkbY0j+b8E1SCBydcLg48RxRt8y/riVykA33J+mMv64lPcB2OoCUWSkGQJfJsgGQKyRGVeJnh3wek6A8kVlMvlE6E4PQ6s5xKwHo8j82gs6ftPk7r7HI4kC45MKxnpFnyQCLyrDEGNKxDYsBKmcH+Mgb4YfFXHxoLYU6DXWN/dMFnb3aBb4gqiLOILIggIAu4EhEjwsD+o7mf7bRkMij8EkolJIWWpfpE4UGd3qKfduU3Ccu9p9/CBBZws2QpBzgMF1aLYZch0QEBhdpC/FmaOOGTLZt2V0Ok3cHE2ikNBTndgT5ZJ2hRHyoo4EjcmYPQ2YfA1YgwyEdw4iMCG4QTWDsIQZNS2JmqDuJanm3OjNh7qUiRbTErgc7dzy6TnlZDTlqFqDJNfO+dNrp0XuWrg7JMSfRMO00X2of2eFJLWHiBp7REciZk40i2Ywn2IvL8eIR1qYY4OwhDgg2TM3qnheck8T+ly9lXlWU6RYLjJdgzPyyxSCgJFiYAQCVmt7Zy/OadsrsPbZEnhuN3CwPjDZACTQ8tSwyvgqvvI8//ApOMKFcwSnzeSaVdGXY5QlyVch9bmPsXuigJDK7I+MKTawN/rUnOvyw0ebrM1LT+dQ4cFsKizXj51ONsZKzF9D3za4gomE00oZW8NLHxWFecivSQhK6lIGetUxxxtQNcvA7JFXyZI35ZCzNyzJK5LQPI3YvQ1EtgghNA2EQQ1C0c2gFVzb5RwOPc4SBgxKQ6MkqJFOjRLaruqWx/VFK5ji7P/1XdCyKD6Cfg0B+2oZ89m0I7THZElu+646NktnLJn0jX2ABuia+Hl5pig9jXr8VjiF2wjduFO7PHpKDYH4e2rE/FIU3zKRWD0884WwWpl3ETx9bWz87uXvhJHxlqM4W/kCEx+1V82cYMgIAjkGwEhEtzHvKxz4tXZH5ySLTwRd5SD2Pk1pBx1zKo4uNSAe/k2UUVC9woKzYtLVJ4Fu3vrA4VNgQATpKk/IBFg1leCU61gcPrH+ZpAXeZWRYBLDKRpS+cyBsmAjxEe/gu+bCkT5aentckGAr30z7WUsv4siwPMBvAxKaTb9RmtyTnjTbeDj0HG22Sg8wL4tYOCTZY068GuOPhhH4xuJqM+26Go+av/6v4ZmQ5J+z3ZqhDgJanL61o6uyIT6GXIMrDkW8+95oxcIkFBSV+DolhQVKfBdJnE5bFcmHkSy2k7Dm8D3OFPfLeyrG5cgmUOH85iwOR8rjq+JgARqEZ+BwZVHEgSdkUhToIQRT+4K0aSeNxoobd3JrWNVrxRBYSaiT6qaxYH5zHHsjEQg08jdKcETVJcVjDIp+/DIVmcZzdcMXkWsfaxB3gnMJom3sH6I7KLkyMTOdNKwrztnP1hLdZzSWA0UOKJFkT0aoDRz0f3mZDUXig5gzp5qFTyaLtcNc1VrmtucHGjICAIXAcBIRIugqe+m2JkK4Pij3DKbuPrkLI09gnSZ4Eez/Fyt8iz/8DZZIizQmQAPFtd4YFVEk+Wh+ggOJukcCBTon8FdaCFcXugtA/sSYWlnaD9coXtXSTCZsHJnhD6E7xeET44InOqh4FOc6FdGXirIXy8EYr5w5E0hU+a6i/uvfHQ5E94srzM1BMGNnSCQetlFKuBd+rB4+vhwRLw6wnY2gPuW6xH8wv2lijjrzCwmsT3e2FITZk3/jXQMBIyZGgcDU+uVWgaCmuTJfqVgcVnYH13hfc3gp+XRIoD3m5wHb00v251WUpkBUfqVlL+PcCZr4+SfjgDg9FAUJsIzvSpwPulSrBHljRrwGAvGy1MmdQyZhKiWVkM2u4F/XJZCNx7RrbVQBNnisQGu5kJlgDWyQaMisQ7Pml0M2fg7cxHlRkG1SFRtTqYyiF5VfPIMmBP+BR1N4Uh7CXnOO+ZgF2cEc+c9Hi+C6/kRtZVB6dkyfo1O+CXLT6Vc18uJXbBdiQ7RPW4k2LPt8egWhiM1xOBIZufOEI5vzq7yEcQyB8CQiS4cUyTHQxNPMQ6SyYTg0vTxk/dy+4+O8qa8+kBc1yzQA+2Oz7zD/SuCM2L63Jj9Wn467zE+3Vl2v1pYFWcPnXqW0EhPdPAhGYKQd4SlX+FfzpBh+WwvQtZIqHcHIjpDWV/VDj+iMSjS+C71rq1odZsOGuDu4Lgr/v1Cu6JgxmH4YOGMGEnhPrBhIMwszkcSoJZJ+HLRjBun0KUQWLaAVh4n265aLAAfm6OJhK8jPCp6pYhQZgZZjSGTBt0rQQPL4JZHSF4Jlx4UKHW7xJxNoV2ERI/t8+fDnvNuahtlWHl7DfLODd9o7bd0L+2P2WeroSpbjAj0oKY6vCmnWTjQ/80KhgsHj1KWy5SwzJ7aO9PUQx8khHEDzYzLYx2xvknESo59L6kWnTUfFRHRkmNZ5CHLM2zzznFwVWo2Hrnd7I4oiqRRjfHE7f7r5SVuhRxfuIqTn29WtvhUWJIM4o/c881bedxGQ0U22kU+3kMPnW1fK7dLuFR04lEgoAg4AGBoikSLjJlqmbhFxMPM9eSyueBxXnAL0o3j3sgAmyKjHpwUyUvv8taGrTlhooKLYrrr77Vp2T+Omfg/foKH2wFo7YlXqJDadieAD8ekrkz1MCcs7Dlfqj4G4yurTB8B5x4UEIVCed7K1ScKXG0Dzy3EupFQ+VgmHsc7gyDaQdh0f26zFEtCXf8Cd/Xg3d2K/zZVuLlf2FiC4VAs0S9OfBabfhwJ6zuDL1XQEU/hXBfOJMh8VIdhWn7JB6uAt9sgy4VwOqAYF/IsELXivqShyoSSv0I3zWGLQlQ3Edh2RmJn+/1oDdeR5Icg1rWLzL2C+mcfP934lce0jhEP96YyIe9MPnbtaWYVzKCmGXz4S3vDPr7JGu2AW2wdvWR6yhT7ltdvhqSFodxmdWH5zIDqWqQmegXT5TBaaEwhCL5NMzzyXmf3XD1w2n/hCN09wmhi2/Y9dVQUZAtds6MXsS5WZsxBnpR7et++NQt7RzkDTl8Fy71MLVecvJ45OSp4uyG62sRcbcgkK8Eip5IyLaqokgKo5NPMSYtntf9IxkcWFxbV3a9cnNqCZcpV//Xosj0idnPRruF6aHlaOUbcsmGUV+AFlnCy6BgdFodHKo/gozmTyArCgkWfV031EefP6ZZIVOGTosVNnWTNB8Fi5Zexs9kIMXmIMhsJMWG5gug7j5QLQJVQuBMqp6PKnRUfwb1UkXClH0wrJZCiI9MgJeRNLuCr1HRBkt1wD+fLhPla0CNx6P6J6hOE4kWiWg/3eRsdSj4miTNupBohRJ+atn1gc1kMGi+EOrzUqzgb4ZTKRDho08uXeXI1957UWauprWeiuPo23NI23Yag8FIqZfvJfS+Ohh9vMFxBsW+h402Lx5JD2GgKZ3hfimar4F6XoA6K1b9LNRlgWxnxvwvtbb9UZGwyw422H3oZwmknqQw2T+RYDXegrkeGMJ1hefWZ92n13LmNu0jo8+dzgJ6ttygZvh3ZhI/pcfxTWhFj5Y2Lt25XRYQNOuM9WgMB5+cgS0xhajejSn54r1IqhOGVofL7ZRQz274znl2wwbN2VMsPeR/vxM5CgJXS6DoiQTnG/entHO8lXKB3t7BvBZcEl/tVEZ9e9ql5mXqe86mKLyccIQ/ramMCyxNW7/QHMLisi9TLciSc/tbjlj77vNghZ8PKDyxxYDqCfFtE+hUTh2vs3dCqM/ItfMhb8t0Vl32x8HUg/BhIzUffbqsiqTsyADqizw7+tMVzc2u8mgJcwoo7bwCRc1Zs5/nLuvV9lIP0svx6Rx99zeS1x1TNwpQZsR9BLeqiiHAN3sHiVo/y1peSTOy2ubN7IAEShlUp0PXCQsePOi6kuSmqsc2kLUdEsssvgyxBNDHZOODACNGn/qXfZr1TEdMqk+CdnZDzv5xpWKq8T5qnd/J5uiazhNJr3TH5T/XjrvQm1u7HMmZnPpsIbHzdxLcpCwVPumDIcA7dyZuSOTUhcjpSzBGjhURS6+vOcTdgkC+EShiIkFhTWYiw5JOUc/ozYeh5YhUI95dLAvyWJtV/zQ99Twfpp7nxYBI+vpH43PRzMizF/UlpoVZTap/rloZ1MvrkpMv50CsRvxTB+SL/CJyiQrnjjXds16/cpc3p1jJc4qpRZR0O0woR5C+i2ayV1Ia19mNZZudM2MWEzt3O450K2X/dy8hHepgDPFz21qavVFAIZmeMfuJlGTG+qXgrfoC5HGpFgR1F+eNWHHIq4+4jAXq8yyKxHeWICZavPkipBRtfSMvKVrtpzuDZMWU19kNl2Lr1iY9Yg/wZlAJ7tR27eTDlau9ZRwpNuLnbOLkuOX41ypJpbF9MAb75ejt+kLbRdL8BvedfKityEIQKBIEbk+R4By4XDNj9fVz0JbG0MQTqJ4DY0PLU8Hk67Fj1GlbBj3jj1Dby8wnIeUIvqFH7upDk+YId5nZYZ7vUHdxo03tLhHaNitdzgWV3HZtVYBc2rriOvbjZp5ToZ5pED9vC6fHr8KakEqJhxsR0fduzJGBOffwZ319VWcPXWk9ELebu6REXvFNwzjnCSQ1rLF6zsL9XyN5Zc9yVRlk0CwtruHb/V3g9jebBWXxu0j3fajZImSMGLVzG9SdCroTomYyV8Mg5BBxalyG7G2DOsecIZHPykaeSI8gwOjPtNCKurUqa+uk3m6O+JHabcbwt5yiL7dYvPgt5t5v3k48QRkvHwb6Rzqb/up9Gzx9SzrSLCTM38qJ0UsJalCGcp/0xqRZFvSj0rW+6paZXs5bWynkrpcrgFbeC5qXXFe6gpXQvQ30pJdbdsrxkrjI0TQvS5fukpst45wt43w35TkxclZcD09/Obus+1qaqxZXmkR52uNEuvwicHuKBDc6iQ47TyYc4pjdyrjQCtT19sOox9e7PEOtryqMSTnLhIw4ZoWUd864bvSL6+IvoazF8V97FladhtfvuujLdPH7IMvZ8qLXrtu0+GQaHElQaFnaLY2zvlp4XAWm7YL+d+hyRVuCcfvcqWKcCD1dB/ewy2a9I/QAR66B1noinuPvzSVt+xkCa5egxEud8CkbjuStHlZ0+bVuNZdH4w5RiRje8FWdEw0w7zW4d4ReB7Nf1jKToualqDv/nUJNs7jIesBjg36SY1YLqFaVtEQMAeEoit1ZDnXrqIRDPXpBUQNmObS/qwGbdJrZAaqkpe9Bs+dRfANdJydkpdFEgBTEHLkSH6acY3ZYOap4BeYRP0F1gXRtP/SwLZx65O+MBH7NTGB8aAUPG+d6kukN60jNJOanjZyduIrwLnUp/UpHJJPuOKPYY1BDZBu8qzmtXBdLh+t5/s279/DcDWwZt5Buc1/H7O+T9XVxCUFtQ0zWBCCv90nugTJm51ECS0bgE6aG79bXdfQQXs5lUuf3U7/T5QOiPlrfefNH1/dp++UQgspGuXqh2xvQdeiYy57j3o+c/Vb7x/XcbJZZ9XC+dzQlq9bNmfaPTu/S4H/dKNGyNnG7jhJWvTQGk8mtfV1t7F5nlx9OXiLi5rWjeJJO4LYVCarz2fNJJ/gzI4HRwWXo6BuKWX1Ze9DyanfNkB08Hn+YcMnIR6FlCTQYb/hsS3tR5nEolMWuUON3ibWdoJhqqdUqkVNMuH1tnZ5k6hdd/cK6LRQ7X1cbz0jMOwPvZQkOt5eWMwjQnXNh5wPOTuLGzBVG95MtEiP3QdojV5RbHhC/RBKbnQsz1nLu5y3IaZmUeaE9gS2q4hURkDXx1q0t2tw/V9u6HN++TT7LKksS0/xO4OXatjDjUQirBKqpvdVzSAs/QC5TD8k3BCX9NNLJbUiSCaVUfajQDGndt+AdgFz1XqRjW1DijmKo2Qn+m4Dc+i2kNWNRbApSgD9KphVDkwHIDgccWYch4TC0ewVWfIDiUxIpYS80eRZ57acYwhug1OsCq8eCMQAqt4Aa9ziBGJD87mGvNY0+8Yd5P7AEnfzV8E1Of0atr1y7aI1zWOkSe5C10TWvMwqIJ02cU8DY41I5NXoRSf8c0oRCWOc7sSeNR0meou9uUIcZD7YWe/Lkm5pGUZhU9QkcaVbqPncfDV/pmSUSsr+2+hKhuw9Hditm2x/cW/abEv1p98XjVH4wO+SpooWxyhbIl3P0jNl6mLBqpTH6qltec9s4chbyYmLOd43bfXlZefKyKkyt9AQtxzxOmfb1mFR2MP22jcEvWj8m3ZVr7qfltF3c1PYTD8tF4LYUCRNTzvBlWiyP+4UzMKAYQVkDfHbXvFxfiFFfnnGHeNo/nEf8ovSX1bW/iz3qduruhC+26ecjDK4BS0/C0nPwUQNYcBRe3gFv1YTB1eGNfyHcDG82gv8u6DshZhyEFsUh3Afmn1B4qobE5zvg3YYKMekS6Q6ZJsUMfLcL6oXDH2f0LY/vqQcfoqZToycqvLlRopQfTD2msL2bxORd8PcFhVF3SZQP1r/ZVhlmHIJnNkP6Ix5Vz/NEav4n4jg5+k+SNx4n5O6KRA9uhW+laO2URE9EnvvD4hw2mlzYzdqwUCIc+1zDK/zxKlLL59AsByHFYPdi2P8XPDAa/vsRijdEiSyH9OfLUKEtHFoEqv+KVxSSfwnkhr21Y5r59TGUdh9hiD2JXKI60pENUK0t0u6FKCeWoXj5gCUN7hqEtG0aUsdPUZa/h9Lyf0hrxkCLl5B2/IJSpjlEl0f66yOUzm9mV8GnIZIhlBiHjYfiDvCcfxRd/SK1AUa27tfSGcxV9e55DX205rkdbI6+A98COlAp49A5jgyfrR0uVe7tOEwBv2MqtUk/RfXK9j7P+9VNSumw2JhQaRDtxgxi5fDvGXToOwxeJuY98D5Jpy5gS7ZQ9aFmNHqjDzPqPEvXP0YQWqUkMxsNp8Un/dk/ew1pZxKIP3Aah81B03cf5vTKXRxasBkvP2/aT3yK9POJrH13NvZ0C+E1StF94TvE7zvB/Ac/weTvhcMq89Dy9zGH6r4mKkc1/84zX2L1qz8QVDKMEyt20vzTx1n9wiSi6lXg7KaDPDD3dRYN+IK084kEl4+iy+xXSTh4hiVPfI3Jy6jN/rvMfoVD89Zzau0Buvz6KicXb2Xd+z/T+++PWPfONA78tE6TLtV6NaHpqL5MrfwkLT8fwPpRs0g+nYh3kC99/vmYdW/O5OjSrZq0r9S9Ec0/HsCm0XPY8/0KzXIXXCaKLnNfx+h1ux0Wc5M6Yj4+5rYQCa6Xyd+ZCQxPPktzkw8vBZWkpNH7Kqe5ChccNnrEHWJkYAnaXGZbYz62gZaVzQEVfoY/2sHJVNgYo9ClrMLLWwx8fze0WaqwpoNEr2Xwzd0Kp9IUlhw30KaUwoLjEq/Why+2KrQqJXEwSeFEmkTfqjBjP3QsDRds0L8ydF8Kr9eGP07Dq7XgRIrCnKNQLlDi3ziFxpESxX0VXtkksfEBPQiTupXxgz2wpnPOCaffj56LhFwv/Kw/ZFtEEhfv4OzENdhjUin+VGtC2lbHFBl01cLAvW26xuznyYAo2htOg+O08yMFfh2OVPchfQW3eFWkpR+hhJaC4nUg+TBSWjJSsTrIx5ZBtW4Yjm9HLlUbJTAc455lOJoNwOCwIv06APmeDzHEn0cpXhnp6GaUai2Qts1FsaahRFVGSktCqdIclr6G1OkzWDEKmr0M68ZC9V4oaTEY4o6hhFeGcxuh1YvZVTBXQzKW1fpxrMNG19h9fBtanlrmABxnOiFju6qzGy7ut60v7GZWeCWKqd+VAroUm534edtI2/4N4d3i8as7J8cx0VnWtUtMgAuo2Hk+dv2b09j/63oe2/0Vkyo8wUOrRhFYrhiTKwym+Yd9iW5UlQtbjlC2c32mVniCXiveJbRaKaZWe5q2Xw1m7/RVWFIyaPftU6x6YRKSwUCHqcP4rsxAWo9+nDL33Mn0+i/QfuLTlGhcnZnN/0fN3s01j5gdk1fQZ80nnFm/h4g65QmpqEVu064p1Z6k27zXWTFsEgl7jtP1jzcJqhDN9zWe5o7+7ag1sC1rXv2BYo2qUOeJjiwZMp6QCsW1QX3/7+vo8strxO45TlCJcA7P/5cTq/bQ86+RHPtzM/+MmEaPFe8xo8GLPLrxcxwWKzMavsigI5OYVvs5Wn02gLLt7mRCpSH03fQ56Wfimdv1A3r/8xEGs5Gfmr9Kl99eZe2IGQSUiaTZB/04uXInZdrWwidUDSomroIkcEuKBJfJ22l05ZTdwqDEE5hlOx+EluUOL9UpMS9T++VRZyoy7WP385p/NO39wq5rcLraRlVFQpOFsKmLwrf7YNNZiSbRCurpvd3KSdw5T2HfAxLFflGI6SWRYFFo+yeMrK2ezCjRuqzMsysl3mkCu85LnMiEflWg9xLoW0XhWDo8Wgn6rpR4sw7MPa3HLsi0KVro4BK+sPocjG6kEOwjcfcC+KkVjPhXoUcliTH7Yet9brVSwG+mKhKuYr6XY9lRX1eR0y2cn7CKmAU7MBcLpOTT7QioVxbJ+/pnEEds6fSJO8zq6Jp4WTaDrJ624JxbnVSPhnYWKLCsKtNQ/KOQ4g+jnNqMIaAcspeEVLIemH3g3D6wJoO6/JB0DsJK6wdinN2OElUNxZqJwTsIKSMexT8MKfkccnBxpFNbQPKBEjVQLuxBiqoBsQe0pQ4lNRYp7jBUuBvO7UGxpiKpIsXsm3VcFMZSSN7qcoBe2kO2DLonHGJH5B3IZ1WRYHee3ZDT8dHT/tctZh+jQ8tQ0aj6ZXh6141JZz2TwPE35mgnUlYc+zBexUKcLVTABfOwurLNwcQKgwiICCKoUgnO/bufUm1q0nHqcHZPX862L+djTU6nZLM7aPPVk0yuOIgHl7+nrdNPqfYE7b4ayp7pq/CLDqHFxwP4992fidl9lPt+fpVvS/anzZiBRNWrxC+tXmfwySnaSuKKp8eTdOQCnX58mX9e+54j8/7Dv3Qo93wzlKj6VS4SCW+w4rmJhJSNpN13T2O32plSbhAPLHqLyDoVmNngRS3uiSnIG8UqE12/Io1e682Gd2dyZMF/BBQL5u73H+H85kMcX7WHHotHcnT+Bta9MYuOs//Hb23fJKSKvhxmT7fTfd6bzGz2Gq1HD6Bc+3oam75bxnJ43nq2fDqX/ge+0zr1rKbDafR6b/yjQlj/3k9c2H6csCol6Dj9BfyLqcG+ruId42FbiWSeE7glRYLrRZ/pkHkx6QSrLcmMDSlLG59gDDmWBq6uc32UfEpb4ftfYKmb/sJURULThQqbukjEZcDA1ZAmw+CK0Kk81J0HB3vAX8cV3t4iYUbh+zYKu2IlgjSRAM+tgLeaKuy4ACczJfpVht5L4dsW0HQB3BulcC4DhteSmHsGKgQoTD0CFb0lGkRBnQgYth4qBMHpVIVZrSUeXK5QN1RiW4oqYFwdS5/S+f8oaT4Jnl/Z7WE7k8Dp8ctJWLGf8E53EPlQQ3wqF8tjHfrq2tC9LL3iDjLEL4p2vsHImeuR5JRskZC1SUEPr6jNVp3mbXnLLKQyTSGynNv6rZpM9RtXnRhVVw994Mo+Xjrrbt1j3M3BMbtMeghnPaiQc1p8ierprl/q1oXiSN61s7JQk49OOqVtvx1q+VxzXjNEjnFzs7y6AbVn7H4+CC5NFa/sbYmet2f+p1QP24r9ZSOnv1pJ6Zc7EN61XnabFbSKuUR1XU2YdOgss1qNoPXogZqTa8L+M2z75k/67x6nWQVafzGEcxv3s7jvWB7dNpYZDYdzz7dPEVgmgjn3vkOHH4axZ8ZK/IuF0/yjx9g4ajYXdh7lvtmv8G3Jx2j69sNUfbAZ02o+8QHqygAAIABJREFUyz2TnqZ02zrMuOsFavZtqZ3QqVhkaj/ViVktX6FYrbLcM/n53CJh2EQiq5Wg5ZjB2KwOJpcfRK+lIwmtUZb5PT8krHJJ7v6wH3unLcfL3wdrUjqOTBvV+7dhUZ/PMAf7U6xBJfZ8v5Je6z9mzQuTOPnPXk3sTKs3jP47vsQrwI+/X5pCy08H8EPNZ2g5egBlO9RnYplB9Nn4KZaYFOZ0fpdHN3+ulW/m3f+j65zX2DdzNVV7301AqQh+bvEaLT/pT8VuTfK/k4kcr4rALSkSHCh8m3KWr9NieNI/ikEB2TELcrxzPR5fFE7brTwSf5DFkTXwdvOW9ziLq8KeV2J3L3X9czXCodk9sIFTUasRGrVQRRfvGdNGrbxLrMZd0E97zPlsqx3MrqMNVY96Wd9J6Brn1J0O6kFH2dvv8ij7VUBK33GSM9+sJHXnKaL7NSXigXp4ReoHaGnXpdclrppwzfM72RBZnUCDCSVzHWgiwekUpR0VndeJC3lve8we9102b/fiZu+FyPmps8jOLHNYy93q6W5gyTXEGyORvF0DpZ7fWbuFTvGH2BqlWxiyoF1FO7hgdondz+fBZaik+k4U2CDsXHJyJKhRmJDMZUnff5ajL/5EwF3lKP12Fy1yZuG+FOZ2HUXy8Rge3TpO72WKzKSKQ+j0/fPs+3k157cewZ5hpWLnu2g66lGWDv6So4u3UbrlHcTsPEbrMYPYO2OlZklo/tEA/n1vNjE7j2iWhOVPfc3huZvo+MNz2O0OVgybgMlsJurOcnT4/kWSjp5lXs+P8YsOJuVkHN0XvElwhZzLDQ/Me4PlwyYSUb0krT4frFkSJjlFQliNMiQcOM1fA77EEp9KcKVo2n37tPbz4kFf4h3gR2ZcCu2nPaeJh1/vfRuDyUj1h1pwcO6/9Nv6BdvGz2fjJ3O0z2v0aUmjNx9icrUnaP3ZICrc35BZTV8i5VQc/f4by/bv/mL39JWqIxR1hran3osPsHf6SjaP+QNzkK+2zNFp+kt4h/gXYL8s3D3uZpWukIuEnIuQ6uRsRWYC76ecpa6XLy8FlaC44Wr9DvJGOzHtgrbm+1pQyZvFvog8R/e5Tlmzn7OTVmtHDhcf0orQDndgdG4Py1cQzoHygC2NlxOPMzeihh5eOUskuD8tWxBkGxbU7Z6uLWHOLYtZg6dbegVkdZujaxOJSw+o2x6zTol0iS2X1cFlYMhLSuQlTtQdbqpIqJvjRZmuOGhwfje7o2vn3rxylTDvubCHqWEVKGXSt+oV3KWGZc4+u0F1XHSkZHB85Dysp+Kp/HU/jGHqgJF9XYMmKrjqoWBLzdTEvSkgm7U1JR1zgGdLPWrwMHVgVhW7Isua46JXgLo05ZSKsowlMR3vkIDLR8C+DAV1KdeWYcGsHgXuytchY03J0J5lUM+AVxfD1OPV7XYt1Lm7sFX/pj5cPVU116WAw27LckZUfRfUtEYvU9aOLYfFjj3TineQvi1ZXAVPoBCLhJyvgCP2DEYkn9YG8tHBpamTX1HinG0wPPEYHb2DaHe9B94UfJsWYAncRZ3+c8KiHZydulbzzFTFQUi76uBluuFz1o+STlDO5MtDaqAg9aWWsR5JSc7JxtXF9i5C8gpHqeQ6VCl7wHaZ/bNr5r53W106UGe4asAm3bIjy847DCBt+hHqP+RM45wtS2qgJu0OnUHcSdi3Eu7ul3e7GYs5lxuyX5gpsp0GF/awNyxEEwkGrzLX3OZ1z+3k76jqBBnczEnXnNv13KiKhG+RkydhKr0pa2uf4pA59/1qYqb/S8XxffC/o1T2DhXtcbfOQJKvouaSy1R5RK+8xmbJa0vjpeqg/f1qK3jZzK6x0OK2fCdQiEWCWleFVNnBx8lnmJ+ZxNtB6gmNES59m0cMgGvn81rice72DuA+3/Brz0Tc6QzUAonzt3J20hoMAT6UeKIFgXdXAaMaxiqndehGIWt5YQ+TwipQ2TlDVjI2gRKf63HakL92HEq9AUhaUCPdeqBfzqAVzl9dgZ3UgUn59Uno+bX2Ysw64ln1WJAVDP/Nh7u6woldKKVrOv0s9BMi9FxVQZEVFhSWj4e2z+SJQjGVxmCukeOzPbZ0Hk04xkbbi5rVwqvEkmvCqB6NXv/CbvYWq10ohlpHyk/IqXMwFfs51/JW4vI9HH/rD8qM6kZoG53H1Y5J1wTpRt50C1fgkiHob+E63cimvpXzLrQiQT1I6ef0GManXqCrbyjPBxbLPoQp6xWef6r5p/RY1lpSGBda/lZuzwIve9zcLZyd8DdeEYGUGNqawMbqKYNus728okXdgFLXPb+LJRFViVRjGaiDumUPOE7m+SRp7Xjkev2Q1k/RQjgryWeQmg0FdWdCzHGk0vVRzm6G1CSILotUrBHKqhFIpTqiNHwQaclYFMmB0vYFDBtmIicehpbPYlj7FXKHUfDPGCSrESkwGKXl07B2IlL8OZSwEtBsMCz/Cto87eR00VKEuQaSSQuNqV1WRaZr7H7eCCxOEw5pQ6XBp8FVEXS9xzdbUvg69RxTwivfEgNu+u7THHxqGiWHtSOie4PbQCVcVbPlLSJvKVtK3vUVuuL6+8GNzKFQioR/LcmMSD5DCZMX7wWWpOwNXy9VSJEddIrZp63PVioknt43suGvP283i4ACiX9t59T4ZZijgik+tBWBDSsVqCW49vmdrI6sTohmRldQHBfAsk2fgeobGrJCPqNaEuo/hrRyNLR4ESktDmXvryi+0RhKNkTx9oedv0LrF2HBB3DfCKSZvVD6zIZl45FbDNQd6+aOQu7+LtLG2UiNesPMXshdJiBtmoHU+mlY8DJKg2eQ9sxFaf0c0rKRcNdQ2PILtH0262hk574Gvdw+TTAY1L3iarhshZFJp0iQbYwLu/5Qyp8ln9aikD4XmO3gdv39In9ycC7O5BoCLSfj2N9/EsUGNCfq0aa3gz3hMsDE8Jk/vUnkcj0EClwkZIUSVRROO6x8nHKG3bZM3gkqTnOfkJv6EliVmaiJkz/CKxFlVMOXiisngWxhoLWbopC4Yi9nxi3H4G/WYhwENq3ovOXmrxW7m0DVY5DXRqpr7Ubn4TR25PQVWcsJrtjyaqwDad1XyPUeQ/r7M6jWFTISUZKPab4Ehirt9e2Oa8ZBs2dBFRIPfAI/PorU/RuUHYugeFUUkxnDvr+RWz8JK79Eaj4U6Ze+yPd/g7TyQ2j5Eix/G6Xde7D2C6QmT4EacbHNCNgwHaXtsxctxaiEjRh822jPT5cdjEg6iRrL49vQClmx8a+5hyrwUNxBhgdG08DbbXfJNWd4/Tcqchqo/5ki3da39fMy3EM0W2KSONhnIpH9mhLdV90i5+70efP73fXX/BIz7OsMu32jyiXyLVoECoVIUM9JmJIWw/dpMTzuH8mQwGhM+m70mz7g/JYey+cp55kQWpaaZrH9JvfXQT9DOeXfI5was1h7PZd4qg1BLaq5eS4V/AxItSSsiahOsLbcoF9Kxmr1f1kWhKxSrh2Poi43/D0a/s/eeYBXVaR9/HfOLclN74EUQui9IxZAQAFFQVGx97K6WNaua9fdtetnd+197YgFRSzYUEF67z2E9J7ceuZ75px7k5sCpNwU4M7z+EiSM+2dOWf+87Z/56HgLEEZcjZiz3KUpD5oMvOmzKS4ZwFqt8k6KGDzH1CwCkZehrL4AzRRCUdchiIdGX9/DnqfBNt+RPQ9HWXR/xBWD0r60QjJD7FjFSJrPkrX4yClP+KHZ1GOu7bOXpexpzEQMoo/HKXcV5rFWGskd0WnVWscmv+pElRpGsfkreHXxP6EV4cXtt+6SSuUViqjGyR3g5GWuZYqqs7QXPmlrDv3JTpfNpqEs47ypzNpvlg6UE2hleAuehhT2MmotmM60MiCQzncJNBuIEG+8/KG8KOjhH+VZjHcEs6dUanEy/z41V/1BtiOWm2FfF8hwV+Ocm4o2clZtjguj0iq5wvRakM4CBquWL2TrKe+10MZU2dOIHbK4Ho3vfY0FvvU1MNz1vBtYm/iFYvXJUIgHKvAk11Hygps+gHhcaPu+BMx8S5QJW+AzCrvZaKsTozku7HKm61keDScDw2CqZpiJFgy4hdERQnKum9hxJmSZcEAvtWu4CByN8O2n1FGXVZv9dfQhaftVrZ6XDwZnVYnoqclB7rgg4o8lrgqeSxGJoxq72LMxQiBNAie9s/saYzXnV/GmtOeJ/2uk4ibNLC9JxHQ/oU7H3f2JEwxt6NGyr0TLEEJtI8E2gAkNPQxE2yRJoWSLArx8EhUKgMCHNLYUnFK9e5DpbuZ6yjl5ojOnBwWS7ge7uaPYXxq0JZ8sFs60las7zctx84Csp75jrKlO0m5fDSJ50p7cMctY3LW8nZ8NzLNoTUgRis3kirVOtJbcw5GRIPPB6JuT5LBT1M0Q7XuLU6hsMgdwivOMHYTzrXhiUyXhE4BLBLcTC7YyMNRqQzrQO+dp/RttPIPMKfMMcwpByhSbO69xaw+5Tl6vnwBEYNleu1Do0jabE/2ZNQgSDg0FvQgnkUbgAS/QxVBqebm5fIc3qgq4v6IzpwRFt9hKWHlR0hmt7unNIulrjIuC09mamgM6ebQWlzsPrXooQQVjLuxgqeogpzXfyXv4yUknTOCztdN0r3wD/wJb9+34l/F23XgearcX/6rZV8AWnmbD076FRhJmrzAUleSGfZ2DyrbPCpz3DY+dITQSdW4zmZjfOSAGurwAG6u1Y4KrinZwQ9JfZFBqR2nNG6S/j4KsoZjQzZrzn6ZQXOvx5Is/Ss60pyaJ10hHIiq31AtPaEFeTCa13uwVlACNRJoG5AgM22hMbeqmAfK9nBciGFbtek388CFMQZ+YWtMEDKBzTNluXztKCZFNelJekZbI0nWzSP1nasCP5Y2aNFPDe6pclE4eym7n/qO6OP60vWeqSh1squ1wYia3IVvxVY4ynm8LIt3EnrXakO4s8G5ssnttrSCrizwgSshcAgDGMx3h/KuKwSXonK6yc4lIVUkqR4IGalTRNecd4Hzz5mav5F/RCRxvO4Y3LGKDk6rrYz7Oezr4InS79aw+c5ZDF1wJ4rF58908IIFfbV1h01943SsRQqO5rCSQJuAhJ0uO7cVbeYk92zGxp5Fuq2HvvHrb/3G3STabIUaGI40Qy9zlfJ0WR5r3ZWkmsycExbPSGsEaaZQLIq0ZR+8RWa4K/tjE9vumU1Y92S6/ns6luTog2JCdb3ge+9dyZKkfkRI7oZqD3mBqPodRNtqE5yo5Goq6zwm5rlszHVb6axoTLA4Od9aSZqe31n31EGoCaihw2vLPECvxgJ7iZ659IfEvpg7WtpbeXsWDhQlqhnnosau/3xB+Ypd9P3wat2nRL6IB/O7eFC8dMFBHvISaBOQsMZZQUXlfIaWPwyiAiVsKub4B/Yb3higb2KrL+AGRzmvVhawxF3FTo+Tk6zhemrnQRYbiaqFMOk5vq/JNGGS1Zd8nWCwdkhYyyZZMwj75hy23zMLT5mTrg+cQvjQDK+6++D81B6ft44no9MZ5LO7+6bqKUA4luzXN6E6IaI33azO/1BdarIn1vzO94DRSalQyNNUVnus/Oy0MtdjJV71kKF6uNDqYJzZgVXneKjL2aCihB4Nam2egpatsVFbJig7Nm8tL8dkMKDDRe4I3CXPQekbmBrpuFgjE0Pm8r1YM+0ZEk8dQvJlxwZCZO3WhtDK0UpeQbGNQw2V3B3BEpRA+0ig9UFC9Rkk6XjdiOKXEdZumMJP1GcsPMUGda5qxGofbMeRj7tRP7hR+KWqiHfthWzwOMnzuOhlsjApNIZR1ihSzGaiFTNhau3wrupcEYZEqg0w1f5sfrfgwErI6MFdXEnW/82j6Mf1pF13HAkzJIdBExBM++zdA/b6a1UJz1Xu4f34PnqsgiFd77HsXAXuPTUpkn1/9BJGy8gGubY15jDjMJd00QZNtCSNFniESqlQKRawXlhZ6LAwxxNCGQqpisYIk5OpFidHmR1YdORhJHPy7fWaVM/GuDRzD1RLt4CS2/jmfEfxdiRrxv3RXTqkH5Cn5AW00tcwpy/20zM2cR8KweIj7mfAh1cT2k2mWG+AaOiAO6f9H5DJvzx7TkKNuRU1ckb7Dyg4gsNWAq0PEqrva96Xvc4tWMu/C80+FyX8HNSoK1BMEiz43OY6KmSQgMdwPJMHhXRIk0DH30vdF7i9zWXnR0chX1WVs1e4KdY8RCkmJoeE60ls+phtxKgmwhQTNlU1guR8Tm3VpCmBlYdPE6E5XRTOWcmuh+YQf8JA0u+ZhqKzvNXIvYmf6A73Ig3PWc2s+B71s3bKuHz7ryAqvWRC3pBFL5QwnAoNo5iklK5SFKo0KBMKm7QQlrvNLHBZWCsUomUIpElwotAYbbFzjMlJhKV21IJsXQZW1vbA8f1sQBLFFI8S0rQUy40RuFzDBfZirivZza+JfY0onQ74anlKXkYrexdz6i9NJwD026jOzdmsPP1Fhi28GzXUL6S6McLqIM9oenTDFEwxtwRDIDvImhyuw2gTkLA/4cpQH3fRv/WUuabEl1FDvI5mwuNlz+u4S9NUkhPjSIACj5sljjJ+cZbyg7NSz8dfJTRdHTzSGsowSzgDzOF0t9qIUhTdwdOqKFhRUQNgR5bjtm/IYdO172CODafnc+djSaqfdS+wZo32WccPy/P41lHEa/G9DMW+N+eBAQLsOoW0S/PgVAROoWIXCrnCxBa3iY2ahUVuC8s0E+Hy74ogVQhGqE6OsXoYYnLQ1eRGk0yMXrWPL2JBQgJFGOGPhpJC6jL2HQ4plFDU0NGGVq1azxAYmeW6HRyfv4GvE3qRago5pJ3hfFhhy43vYlLNdH3srIBqZQKzIo1oRdjRyr9ACRmMYq3tfNuI2sFHghIImATaHSQ0OBPhxr3ndNToy1DDjkcotpanoQ2YyFqvIZmbf4uritXOMpa57PzqqqRUeKjUwYVgr9AYppgYEhJOb1MoXUwhejhmvGolRFV0VbJZQQ9rMylKg+FtnnI72277iPKlu+j+1NlEjvKlUW69ebVmyw1pOjy6GUCGFmr6/8fnbdB9EzqbLOz2OMlyO9jutrPGXclylwuXIjCjIRNxu9DooWqMNnnob3Ix0OwkTZGAVdcpBGQqOpDQdDWFt1hQZFY9RY6g5Vd8f3An0zgflbuG56IzODokssOZGQ6kqWoeUDX0NiuOfJBeb1+CrVfH46YIyEYKNhKUQBtIoEOCBOHeizvnb6haNpoaiSX1x1om8gN9WNpAboHtot6E/H5R52/5mpvN7gq2uqpY76zUfR/We9yUo1COhzgUXTMhzyB5J+1vspJptpAmTAz6dguxj/+G68zBxNw0yfCPUEyY5E1YKt11b3BD2yET/ej/95o+jN9577i6NsN4zvfbare9fTlV+tni9cu8nqVQmm0MVbtPGW94ARikysYThvlFmnXcoKcTLtBcFGtu8j0O8jQ3eZqTXJebXbhY7XSQq0InCZQMKz8mxUSp5qG7amWo2UpPayg9zeFkWKx0Ndkwy7wJTkkl7a7niiH7l1qC2o6LLVt+6dNgmJVk6zUAIWDBwN49IzVTo3LXcFtEEmeFJ7Vs0K1Vu5pqWwpErrKmaxB1012ztWaGp5BjUw6rz3jBa3bwpuc+iD4eXnfMgADH1lq+YLuHvgQ6JEjQxa6fFGV4quZjCp+mn0VCK9PZ/FRzV/1D0rxbRkde1Gq3Oq8IvGGihnFcP6kMrbYvkFzz2tP95uRVexsHrcYej4vcrDw4/2088TYWPT+VrWEK2R4Xuz1ucoWmayAqFQjRNMoVgUdR9X9LbYS8iVepxh06xnuRdhgWdG+SYXl0m3QziHxWFl2LoRkgQlYpVCACjJA7mSMACEHe3kFTVNxCI1S/xUuUomIVGoWKIAwT0gji9G6HCkVjgGIlxWQmEZUUayhJiplkk4l4NZQE1USKJFpS5IxkMZwLVUzI5EpbNDevx3XXNQISQvhmYcTmuxD2BShC9uaLODBMBDqECQBQqImYkBBBaifCUWxH6ZJouf7A2AO+HSTXYnLuOqaFxXZIlse6b6F8lw3uhje83A21s5s29a015KCx/vyXiRrfl86XHetzEwqEsqapw2n686ICV8UXmC2DUUL6Nb1+sEZQAgGSQAcFCTVw3/eyy5umDAnylL4ojxtMcXejhk8NkBg6ajPyZDKcIo1i3Lj1w8DwbvQmXKk2fBuPyV/rj2tsu+VDCr9bT+9XLyRyZPc6yXnqH011Xev8D55ap1ADIvPZ+31/qmZabIl4vVoH38DrXgSF9F3RL531DxUvXqo+gKfnbWBsaBTXR0o9QwNzlzdZmWhJy6nthKrLPDCmBp8ohDkTRWbTq06wFLgLo5z3kXtXMy00kjtjMrzpF6RqKVBQpCUL2lBdY1XdJc8iAgQSjH2r6cB66cj7GTz3JswJknL74CjCXYA7e6LO3aBEzOhwZqKDQ4rBUQZCAh0UJOxragK3ZyfsvRJTwjMoIb32qU2or2WoiUgIhOA6XBt1Ts+yRZvZeOW7xJ84kIx/TUcxHZyhYIGUsxTRsblruCYsiTMj/PkQagtPaqxwSPODKwDdy+gXFaHrz+UamHXtAUpIYFGB3/nfc+9KrguL49qotACMv22a0DVfxc+jlb2KOW1JowieGjuyrP+bi317Pt2fPvegCYnUuRv2noAafVswuqGxCx18rlUkcJCBBH8Z1NyqnbuPQVFCsCS+ANY+1Q/VuYS2igDbq9HqY837D+MWr0n9PWunPYUzv5QBn1+PpVPHS73bXjKT/UpHvuPy1nKJLYHLIjt5LTf19BPGED2FaI5lujdE7TyaDRm2BZrUCkhnEF2z4X9rl8mvbIiQEShquM4Q2RiWw8bKyTcauybon7uSZyLTOCk89uA5EKv9WKRPiNSQBThsUQiWj32Qvu9dRUh6/EFhbtC0Cih9BzX0KAgd3NitEHwuKIGAS+CgAwnyMNRZ9fwUxq7KrzHl34dHcWNJ/RnUyAZSAflO08Bd4AK+Gs1sUD+WBOS/8zM7n5xP1ztOJO70kTrlcbN9v5o5lo5dzdgDlcLDyfkbGWuN4L7odP8US36bw3f0SpW1E7drCyb3bi8pky9Tov9s/f1JJECQPjMesGZ6fWgMjo/WyFEle/7FXspFRVv5JrEXffQwR2l+qQHSHXtdasvRcOBsCIg1fxYF7y2g8Pt19Hj98oPinTDe6SB3Q/NXPFgzUBI46EDCvifuxuPKxmSRH32juPPuQY2/HlWNa5WPc6AWoaXtiHIHK058ElNcKH3fuhJzTJjRpP6dPRgPipZK5ED1NRwCri3aRr7HzXsJPbxkY371fD4f1bTShjOjPPgV3AhPIYqnFCHdKmVUhGIGJRTUaBQlGlT5szyoq+M+/BwiA+cbIMM9ryzYyu+uShbpPBVecCAM7oKOXupDAf9wh8CNXl4uVox7hD5vXkZoZmCptwM3yvotBRYqteZIg20fqhIIGEiot5n3sbuNX+9767s1gTkADlZa1Z948q/Re1MsAzB3euOQW0MZa5/10JfkfLSEXv89j8gjDUe4AF/CDjm5+SYkIx/eK8vhoco8XohKZZwtruG5tueXej99L3eVc37BNs63xXBzVFrHI2xqxM6pmZ7AU/oGlH2ImvJNQM0xvmHkvfUzpTI/yNPnN2Jk7fuITPSlVc5HsfZBtWS272CCvR/WEmgGSKh5rV0eQeSdP2J/+Dge+WYT/zg+k1CLueEzyv9jV62Z9XnoG5esvHInF7+9nDkzj9Db+HJVDlmFdv5+rCQaMmy9stS29+57/SRJClW/IZRw1LAxxuXanQcmeduTiWt8bfpC3vTWO+SG0KMODDuLbrZ178hn3cWvY+uTSLdHz8YUZeuQ4z4YBrXD7eDSoi10Ui28EJtJtNQCeCNIasw17bMvGsII5ZqLiwq3sNnlZHZ8TzKttoM2HNh/fu6S5xGSu0F3XKyrgWnZTtK/H5pgxbGP0O/Dq7CkxjQY4dKyXgJXW4Z6u/echCnI3RA4oQZbapYEmgwS/DUBEiSE3fEjb57Slyu+XMuF/RJ5/Mz+bNxbzgPfbuaqozM4oX8iD32zieRIKzabmZ6J4fxn3hYm9oxn5rgMHC7BXZ9voErzcN+U3vz3p23cdXIvNu+t4M4vNzC6eyzXTshk6fZidhXZeXfJHu6a2J3BGQegL9a5dOqyJQrcubcinH+gWoejxt2OYpbZ2PzvMx0VJhjrK9waO+/5hMK56+n52iVEDEmvRRhUE6oXjGZoyhvhEBpfVBby79I9nBIazV0xXfRU2NWMTO2DEYw113NPCarQ+FfxTuY5yrk9MplptgSsOlmYLzzz4F5zd/HziLLXMesskK0j8F33f4YaE0bqdZNr3vvW6aop26/es5K7QcueghrkbmiRHIOVWy6BJoME/y4NkPA9224fw8Anf2fOJUMZnBbBuKf+4qNLBzPtjRV8eckQZry7klP6JHDZUelkldhJDLdyzez1/HtSNx6bv50R6dFkxtsYnBrFaW8s59u/DeOYZxfzznn9efuvPWTGhNItMYLnftrKPVN6cP4Hq9l9j6SC3d/b3VDEv3RU2Iun7CO08ncxJ7+JYu3bYbUHdZe3as0eNl/7HhEjutDl7mmYImu0B3Xd5lq+NQ6PFuqav4o1F6+X5/JKZQGTrJHcH5NGjPS2b8eDJM/j5KHS3XzvKGdmWBLnRCRUaztqazzacZCB2C5aMcJTgmLJCERrtdrwvR+eMjsrj3+MQd/fgilSpvDqmEWnii56CjV8EkqoZGUNlqAE2kcCLQQJmq5JcD0ygYR7f2Hr7aPZmFvO2W8up0tUKPlVLt66YCCXf7qeWRcMJiPexsX/W0V5uZP1RXZemN6Hq2etZdnNozGbIb/czaT/LubVM/txx7dbmHvFMNbsqiL1AAAgAElEQVTsKePKWeu4YXQGW3PL+fvYDLo9/Bu5941rkcRkLLyiyjyAxm3RvfcilJBhqNF/Q1G9jn9+PbSPWdp7hDnd7LxvNkXz19PjufOJGN61RXMPVj6wBIo0F7MrC3m8PJeeJit/C4/nRFt8g+RI/jk5ApUF1C0E31YV8mxFvp52+saIZKbYYolVWxoe2Nid3NjnainiDizYek80oZ9mtN5QlQ3nvUzy5WOIGS/DpQ9yYBUgmQSbCUpgXxJoPkgQ4NKkJuEHXI8cT/K9P/HCKb2Z3D+JYY//zmsz+vHm4j08c3pfxr24mE8vGEyXeBtd7p/PZxcP5fKP1/L0tN68tyybUJNKRrSNU4YkM+Ot5cyfOZKhT/7Bvcdl8unqPKb3SyQqwszOnCquGNuFbg/9Rs79BkgIxCsutFI8+XeB43dQO2NO/WIflL5tuZGMj2f58h1su/UTIkdmkH7bSbrvQdt/Vtty3h2rL7umsdJdwTvlucx3ltHDHMYMWzQn2GJ1Yi2j1F4RI81zw74z1UETteoZ9Ys9Lr61F/FWVTFZbjvHWCO4JDyRgdZwQrxZN1u83/3dcLyj14QDRf7nTWKt++vISA3/IkOPpRW/egB+JroGsn/W0+P5BS0YQKru29uQ05JPug2wWuz3JajxX2roC1Hy4xqyX/+NPu9e2bE2W53R1NVydejBBgd3yEqgRSBBE4I5a/OZOiCRtdllLNhWwkVHpLCrsIrftpcwMDmMoRkx/Lq5kJFdorFZTSzaXsz2oirSY230SggjzGrix41F2N0exveMY8WeMv3/WUV2ftpWRJeoEMb0iCOrxIHd4SYjIYx5GwqY0jchwIsiEK4shHsHqmTk0+3/OWj2xZgiTmqDiIHaoV/C6Wb3I19R+N06Mh8+k8ijuunfu5YR3wRYZIdDc36HapnmZo2rku8cJcypKsaqqGSYQuhjCuUIaxg9LaGkmkN1JoZajnc654bhH6NzFCB07oyNrkqWOStY5K5incep82VMsUUzKTSGARab16TgC71svMNuw8tipPgWEgy4s/REUTqLhpBMGt7U1vIRGTnp5QiR9NWKKsFCHFhTUZAA1efnUx8Y6amuvb820oYb+UwMERr9G3IxvG/1R/3Agqf8M0TFHExJL9dEN/h8i4zGvKjBcHjWwYb/76snvn8YLaOCVo1/lD7vXo5VJlfqiEU4cDuWYjZ3AXNqRxxhcEyHiQSaDxLqCag5VvE6qZL39W639tV5H+1rpe/iKfk/MCWhhp+JGnVJ6ydiEVCxbreuPQjv14kud0zFFB3u/a56mRfr3cIOk93aDtP08lBWE2n5zAlyy+z1OJCREWsk7bSrih3OSpZ7nIQpEKeqWDDpgMGts2wa2R4rNI0SodHbZKGP1UZvc5gOCLqaQkg2WXRyLJ8JzJhuS3UHxubWXNtR3HsQQvKF+gjDaqkK/Prygpo68lbUSDRTCqqlqwEWZEtCYHe7yK6sYG9lBVmV5eytqmBzZQW7XE6q3G4cbjcezUOZ263/LFlKPZrQib2kw6jbIxOkCe5IX8QNKX+SsegfeuuqJBozKVhVM1aTSohqwmoyEWY2E2a2EG2x0j80jM6hYaRFRNIlMpIuETH6swcqW258n6ijupM4o2Pa+4U7H3f2JNSY2/W0zC3dBQeSR/DvQQnsSwIBBAmHopA9aPbliPIPUcNPQ7EdadyJpD+DEtny73ddkXk0sp6ZR/5ny8i4dxoxx/VvqcH3UFyUtp1TEwGqfFxmdJSU1k40pG+BvEWbFAkaFJ2aW/4XgFQgjZODawu4d+kaBB/oMCBAY4qhxbB7YGuZiw2lTpaVudnkUClw2ihw2Mm1V+HWPPQOiyIpLJSU0AgSw8JICgsnzRpChNmMzWTGJg92k4VQswmrasKkqpgVVc+JImUjWURFyQtQ/jruzn/qgEUyWTqlHD1unB4PDs2Dw+Oh3OWkxOUi1+Uix15FfpUEJ2VsLS9jeVkpiRYrCSGhJNrC6BIWwTFRsfSNjaNXbDzRVsmZAWWLt7L7wTn0nXVtYwTR5s9IkODZOznI3dDmkg92WFcCQZDQxD0h8+5re05BM8diCjsDJWKqoUb2JYny5jLYf7PGPcy4JxpmBse2XLbc9jHWpCgy7j0FS5IkSW7iCdXEuQQfP1Qk4LdP9H8KpJ8NjlUgKgxg24BOwlXgwr6jCueeKjyFTpylLtweCWxU8iywGVhpVVgUacKcEkqvCCvdoyz0DlVIDjUTFxpCYuQQYmxJhiC9vgn7NgPsS97et8e1E+Heg+oF481dnWKnnfyqKl27saGilPWlJWwoLmBlSREhJjM9IqPpGxnN6f/4kfS3LiG9R1o9rxIj9/s+IqSaO7Am1NO0EkTBfajh01HCxjahZvDRoAQCK4EgSGiUPP1TG3vwVMxFK30H3NuxpP4Gqsk49HUbabWh9cCHvH6dE+S+/TvZr/1C6nUTSTh9uM9Q26iRBR8KSgCh6XTi1UDVtRXh3qKDT+kB4YOjFatKKf65gMp1ZVRursDuEmQnWsiJNlNkM+EJVekWY6VXhJlkAZ4SN45suw4khF3D1j2c8D7hRI2JJ2KETEgmZa+COROsPbz+MnVylDV5eaoNGY02tdRElPh7R3pxiw+Ie2nVpUlkc2kxS0uL6ffvn/iop4n5g6MZEJvAmLhExiV3ZmB8IhZV9WKe9lH0G5+GIHdDk7dPsELAJRAECY0Uad07he6Y5VyBEiIZ2gxNgqfgTtSIGaje33nTOe3TnujOKWHrXZ+iVbnJfPA0QrokBHUHjVyP4GM+CdTWImjO5eDJqXYYrFxdSuGXuRT/lM+eEPitRxhrMm2Up4QQmxrGsLgQRkWZyIy0kBYuvSjq6hwMJ0FPkZPKjZWUryym9PdiKrdXEDc2ibiTEogcGYNQk1BDh1YvS9NCQWv69M8s2vQ19vMyrVe5ts+U/Knoi6WU/LiesAdPYUVhHj8V5LIwJ5uN5aWMSEhiclIKkzqn0S1aMmoG9XpNX49gjUNBAkGQEKBVFO4s3HvPA1GCaj0aU/Jz+yX0Kfp2FTsfnEPy2UeQfMWxKGZJzBMsQQk0VwICUbUYRCFVbsj9No/Kj/ewe6+dbweH4zo6DrV7OMfFWhkYbaFLuNkbadA474S6o3IVOCial0/hnFw0t4fEM9NIPL0/im1EMycg8FT+AFULUOPuabWMi/6D81TYWTnhUYb8egeKVabiNoBEmdPBnznZzN6bxW85WfrvJ3VOZ0ZaV0YkddIdKlsbzQvhQjg3oZiTUUwdNAKjmSsdrHZwSSAIEgK2XlKxqyHKvwQ1DpPPjujOQqCimDvp6l+tys6uh76mfNlOuj54GuGDugRsBMGGDgcJ+IwKvtwBArfHw5Kcv/guZzeJPxWS8cVeImKtaKenwFHRDIsPJcIizRHNAwT7laqAsqXF5L6zh/LVpXS+YghJ55+MYpGgt66vxP5aEnhKnkcrlWmZA8/dULdnn2Zw7anPkvmf6dj6p+1zcFtKCvkiawdfZu1gZ3kl07pkcEZqBkcmp+oOl/46nZowz5btReHOxZ09BVPMbaiRM1rWWLB2UAItkEAQJLRAePWr+n/Ajb+6cq5Fcf4Btok4sqez9eZfiRyRSfqdJ2MKk57WQefEgC7BIdqYv0JeE7C+qIBF+bnMy83i1+wsRhQ4uOLjHDI720i5LJ3IUbGGz4A354GXhaI6a0GLxORt19i7NdwR9q1V7HlpO2WLyuh87QQSzxqFKlOpNoqYVIKEFw2QkP5XG5AvGRLd9s9PiBiaTsKZoxowC/pL3fARyK4o47Od2/kkazs7Ksu4sFsfzk3PpFdMLEI6O/q7JLVAyJKIzrPnBNRYCRLObEFLwapBCbRMAkGQ0DL51dwi9pVFzlOIp/gNXPlfsOuR0SScfQ6xkwZ6SXn8Y+Lbx0EqQNMPNtNaEvAmE6pwuVhcsJdvsrP4fPd2Ii0hDE5I4PT4SPp8vYTid3aRcWsPok9MlHorhKIYrKHV2gNv8qKAjdNouwaIyFwHBhGVfZedrGdyqFhdRNotJxB34iAUk2+v73sAwrEG4VqPGnFao50WWzIdCQEKZy+h9PfNZD56VgNNeUFCtTuDl7XW++SOshJe3ryWL3fvoEtYJDN79mVyWgYmteWmQ+EpRsu7FiXyQtTwiS2ZZrBuUAItkkAQJLRIfDWVa+kD/H5w5ZSw5eYPUcwK3R47C0tClH4jceVchBp6JGrENBTzvlWdARpesJmDTAJyC+0sK+G3vL18tmsrP+XnMSwugenJKUzN6E5aWCTC5WLrrf/FuaeS3i8MQglT9QgDeVjL5EQGSPAr/pghQPLw6c4UoermtupMk8KEY0dvdj40F4/DScZd0wgbJPd57TFVR2S0cbog3yvq2lvC2jNfZNDPtzXbD0Jmnv1+9w6e2rKW5QV53NxvMBd27UWCzccBE9QWBmi7BZtpBwkEQUKAhN5QPvrSn9ex5Z+f0umCo+h05QQUXwYdTynuovsR9j9BkTHo81AUaXpoQJsQ/L4EaIU6ajM1Hvma0NhaWswPe/fw1rYN5LtcHBWfxPldujIupSsWff8Yunvh9rDlmtcRooQeT0nNlD9ldOPnWrO9qnMeN75ynSd9AKX61+Z0sPSl+NtV7Hp0LrET+5J67UTUCJnqeX8b21/r0foathXHPky/j2ZiSZa5SZpTaiIn9lZU8MCqJXyUtYNLM3txdc++ZERGN8uq2H5ZGpojg2CdQ1UCQZAQiJWto5XUnG6yHp1D0a+b6fH0uYT16VyvF/0zqJUhHKtRbUcZqXPdOeBYAqFjUE2RzfqwBGI6wTZaVwL+cf1uTWNTSTFzs3fx+pYNCFVldEISM3v0ZVBckq4VqOsMJ7kHdv1rNpVbttL7vzIrp/8B39RD1VAv1Caeavz8a7iddPdcY7x6UVEUDULHg2JF83jY9a8vKf1pPZmPn03E8AzDPOEHjCVPirCvRI25xEuQJdtp6nwaP3bfkxsufIXUa8YTMbJHM7urHzbq9AgeXv4XL+3axIyULlzfdzBdI6MMvgkvWdf+R+pBc+1FNUWDzlYbLEEJtI8EgiAhwHJ37Chgw2WvEdY3hW6Pn4Ua4k/tu3+1gKf8E7Sih/SPqj3rTAq/7krG/dODro0BXqN2a867/FI9vb2shDlZO3hx01o9XfH45E78vWd/b0y+f0x//YOyZN5qdj7xOQM+GwlvT0cJN0CodsKDKOHRTZ6efgx//wxizOUQUp8m/YANVpUhTGYUq62axMpXR5jSUEL6VwOdiuU72HzjhyScPZKUS8bWioIwohtew5y2uIYI6oCdt/yBbXfOInJwKglnSh6H5oOSavDnd2mQ6OuR5Yt4ccdmzknL5Pp+A0kOizxgL0Huhpava7CFwEggCBICI0f9I1j07Rq23fcZGbdPIe6UYX7pmvehXdU/Jv5hYhoVyxfgzn6Uql1HEnviVYR0CcZIB2qJ2rudrIoyfsjezePrVlCFwinJqVzXdxBdIhuv5nbll7Fq4hMMnD0SS5IF7Z0zUc7/sGZq+dshIQMKdkJ0Z3BUQnkOxKRBSDhUFkNZHsR1Ac0NzkrQPIbWKjIByvPBWQUR8VCeBxGJYIsy6lSVQEI3sJcZKZgrCxAJmbD8C9TwBLReo1EqSqFsD8RngiXE0BTYJgDeKAdZz+Nh88x3Ua1muj4yAzXcqj9XGyT4Mki2/qrlvPELrpwy0m4/KUCd1b8MSABx118LeHH3Vu7vO5BLewwg3OJ/gajdtfDk494z2RsCGYxuCNDCBJtphgSCIKEZQpNV/FnwhF06kH1I1aY8+r7/N8yxTVQPCnAXVbDrwS8pW7qLrvdNJWpsnwOObGUBlHsEUSaFPrFgks5qfnHbDTVQ4ztR/4Zaz75RX4taG9RUq6m93BUNKEr8WSqu/0Xw1JhqvmtmbYHOYXBkZ1/MvyFZ322ubtY+n5ObzpkkvfcPKKFWfsAbeeDrpZ7sBUgegT/zc/nPir/Y5XJwXEISt/cbRs/YuCYMruZquu3WD1FjHHS5IVmvL94+FUI6G4fxWS+hzH8RLbUfFOyGvsfCN7eg9jwdNn6DNuNZ1LkPQo/jEHtXomSMQix5HWXwebDlW7Sjr0f56lqUjImIHd+hdJuKKFkNo65G/PECSucjwFWBEhoBu9YgnKUoY2YiVsxGsYQjxlwE/zsH+p2Psm42nPMqyPTG1hEopvrz3fXwV1Qs20nPVy7BFBWKqFqIZl+CGnu1N1SzbVa45Jf15L2/kB4vXtSENWn8o9UeFkLoBFUX/v4DCwvzeOOIsRzbORWTYqr36mmSyjvnPJSomagRUxvfWfDJoAQCLIEgSGihQO07C1h9ynPETexDt4fPNOysBzioq89BechoGsU/rGHHPZ8Tf9pQ0m89yXBMqzlLqwFJ3aGO+gRuGgiLC2BrqeCTE+oe1l4oU33G1BzGtfLdVzdcOzHMzb/CE2NqHOuMcdem964m8/FijhpFufEvTTIgeo/z/h/Dmhm+T6bCk8uhRxRM7SbH5RtkDbGOzmjs1bToo9DtuQY9sd7dgeTcwrVtbHVDlnJMBkWxS/OwrbSE/1uzjC9y9tA/PJoHhx6hZ+vzAZ2mqbW9JGA781h//isMnDcRRRQaw3vvLDjPp0mQqcKrUN4/D3HmWwhHBcrOZTBoCuLza1CGXgW/PYASEoeQjrKDL0DG44s+J6J+fRccfQMsegkx7iaU7x6AyQ+gfHUz2oBTUBa9DFYbxHSFxMEoKcOgYi+CEDR3OabIJERkJ5S1PyGGn4Ty4dWI6Y+DNRyhRNYmbfKjWNj73x8pnL+O3m9ejslmMDS2dbFv3suWWz6i/2fXtWrX1SmngU0lBZz3x3ySrCG8dOR4UsIj/PwwfMMIui626oIEG2+UBIIgoVFiqvOQ/NILQcEXi9n2n6/p8/yFRIzMbMJ33zgqPCVVbLvpfey5ZfT674VYO8dWt1F92HoPxvrD1DjiE5UvToS9VXD5fME/BynkOgULsxVuGQ43/Qldw+GZMYINRTDzF4UpXaGgHM7tLfgzD2YOULjsB7hjODy5AjaXwikZkBou+NsfMKmTwvNj4JqfBHudCu9OgKRwYzQLsmBloeDNjQrn9YBrB8OkLyHZqvHEGJX/Wwm/ZMHNQwTTu0O3jxWOjYE8J7w1QfD2BkUHCSOTBbf8ruBww8vj4Z2NgjKHwrwsuGkQPLgcnjkGesfAlfMFhS6FjydBdPucKXWWQpJ/yaKSW1XFh1s2cPv6ZSSHhnN/7wGc070PZglm/AHN/l1TarXvf0zseuQruWtIvSZU3ycSl2jvnI7aS2bk0/B0H4Py3d0oU5+Aef9BTLgJ5ev7EENPgzWzEdOfx/TNI9BvAsLh1M0PwpWH0udE+OZuxDH/0MGAOPZG1O//hZj0AHx1I4y9FeXPtyBjFFpEEmrxVkTaMJTyfIQwg0nA1kUw5lKU9y9EDL0EZdWHiDNe9JKfqSi2cSiKpUH/mqzHvsGxu5DMJ89BMRlAqy2Lp7iCVSc/xZDf7myDbv3J4uDV9au5ae1Snh04gnO698asSvfPljiitsEUgl0cVhIIgoRmLLdW7mDzla/jyKuk/zfXo5p8yVNqfwD213T5su1svvo9Op03ik5XH9+MUcCIj2FALHS2wb+OhLfWC+yawtUDodOH8Nk4+GAjzOgp+PufCj9MgvwquO0v+OdAwRfZCg+PgKM+h9dHwy1L4NPjYPjngtWnKUz5Cr4+CdyaYFMpLMhW2F4E/z7GGO7X2+H3LOPnER/CgjMg/kPInWGAg40lcN1gGPg5fHMcjP4GVk6DFfmCWbsU0kKgRzS8tQ0u6wF7KmB5GYQpcFwS5HkEK3IUrugL1/0JcyYL1hWjg6CCCrhN+pm1c5Hq480lxVy3aD4rq+xc3DmNB4Ydg83akL25CejAb15SUyGqXCw76j8MXXg9irao3qwbik4Qxdmou5aj9RiDYpPIzquFcTtQLDIM8UDFN15ZTwOnEyXEQGY+jU61ZqeqFGyRRh9VFXp/mgKqrg1SIGQ0qPvKGyDYeNkbxE4OJ+6kONSw49tUSyRkWuuhDzBi5X0tclw8kDQb/rugzOlk2s9zcXnczDr2RJL0/AoSAVbqTswo+/ZdaF6fwVpBCTReAkGQ0ChZ1diEq3YUsHraMySfNpgu98nMcI0sPq29Jsh68Tty/7eIvu/+jdBuSY1soP5jR3wCi84wfi/V+m+tgT7xCkd1grSP4PNjpeob+sXCpLmC98aB3QO3L1K4Z6jgtc0K9w+F6d/Da6Ph36vhvWPh6Fmw4DSNk75UmXUivLERNJdgVGd4f6PCE6ONPr/ZAb9na9wxQuWY2fD7qR4SPlIoOlvlp12wrgwu7wPjvxLMOl7hqK8FS6YqrMmHL3ZDaqigZ7TCuxIkdIdEGyTYNJ5dr3J2BuQ6YH0BnNoNrlwAk9Ig0QR9EgXztircfWSzRdeiinIpS5wO3ty4hlvXLqeTLYz3hx/DMSnpLWq3ocq+w79i1S623/0Z/T49DxyLaz0qb54+XgZ5MCuaiqp40ErzULI3QO8x3uebl0tBD1SUVNTCs9/5+ZuC6j6ohAwHU8I+67tyS8h9bybJp6/DlC6jG9pWo7Bk4D0MW34vSjXgD/hS7rdBuafe27iGq1Yt5n8jjubk1Bg82ZMwxdwR5G5o26UI9lZHAkGQsJ8tYTjIeS0AmiD//QXsePpH+r19ObY+nXQVs/xwKtLx6EBF2mE9HjZd/TZapYOer12OySrrNd85a+IXGt9Nq/mYvrde0DMWjkhW2FAIE78XDIkwVPO5lTB1HkxLg1UlMGsSHPuNRjebitMF946AJ9cJ/ns0nDRH4euT4dGV8PYW+GQcHD0PLu4EYVb4t0zr4AUJv+wUvJSlcG9P+Mdw6PcxrDgNLCrc+At8vAeeGQnTe8CZX0MO4HAKvp6s8MFmyJTmhiTB1HkKdiH4bjK8tE7h5DTIdcLmQnQTyVWL4ImhGqO/U5nZxTA1SJNKaxd/6mKPJthZXsLlC35iZUU5l6am8Z8jjsFssrRuTgsBOW//hmNHPl3+OQDh2lIreZJ+U9eMtMh1i8fPJ6Q5spJZG2UmxQM7ih4AgFi6oVh67nMI8lVzbHoENfRjLOkLUSRp9T5Nbc2Zyf7rLBl4L0OX3YPabmysxscm317FhO8+Z3Ssmae7Pogp+g7UiDNa8pkIvLCCLR5WEgiChAPiewWt0smG817BbXfQ/5sb9KQxunOhnru+xmFtf00Jt8aa058h8sjuZPzT563s5xQY4G2nq6i9dmt507z1d8G4VGkGUEiOhhsG1HRYXwnuP666fzVMKvK33+2ASgec2stoq65Dof6z1xZfQzCkP+n1zPSNwWum8TpG1hAH+f7udffzB20Bltf+mpMJj+bu2sYlC3/BYrXy/shjGJuSYajEfUqmVj7Qts58m4SzRhJ1pAvhya4+QIXwJi3Sjxi5LhK0SvDqW8OWCcrAHTUxKnVbq9YeCAkSPLV9L/Q9YYxPMSVDyJD9Dsa++zMcG2cRNf6tttUkeDwsHnI/I1Y90DJhBbD2E0vncnXCXRB1CyHRZ7ap+SWA0wg2dQhIIAgSGljEGqdBsG/NZc20Z+l88ZGk3tLMOGoBq058kk7njiLxQq9B30e9E+jDpSGztxfQLNqrkB4BKb5kjvUM2f6VG7af+9/uypwCj6YQs1/ztjSE6LCqujSUwnqfV/HmmfED8mpWud3cu3gBz+zcwsToON4+djKxobaaeTSgB2qt4a4c9xB9P5qJOXojiruwWmugCBNCkXkOBLw1BWXy04jOErVJLZWh5dq/meAAIy7cDUvfRzv+Zt1Rcp8RJau+Q2z6DuW0RxuUvVDiUG0jG0wY4huBc28JG2T0xvc3B2T9GtuIp7Cc1dOfYfDPdzS2Shs8J/h6+1am//ULv4ydzKjklDboM9hFUAL1JRAECfVk4rXuCsh79Wd2//dn+r1/JaG9OhnnmPwY+zgY9rujam7c6055lvgzh5N87tEdRm1YczQE5lhreSs+bcGBcz0E/kWu6VtqPvZUlHHOr/NYWFrCg70HcP2gEZhkeGPzLUMtGrIEVUsG3MPw1Q8g7H+hakX1TQtyX749BS76uhq61ONS0EdRm+VJmfcgYtI/veYLQ/ugKyHWfYkSlgpdh/pFJBiOjxIo6JEVuibNKxTNhZh9575BghqtE5rtr7iyi1l/kQzxvGW/QKxFwmygcsXa3ey693P6fDyzRea/wI7L2JPbS4sZMG82/9dvCFf089PEtPyFC+xwg60dshIIgoS6nyP58bM7WX/Rq+Dw0Oejq2pSKzcJJBgNb7j2bWyp8XS5bUo9VWx77qrA23t9kR0aQkhHt7onamO+akYOBv0oa5McCLqKRV8X+b/FuXu54M/5VLg9vH7EaMandNFD0to7L7bm0Vg29D6Gr3gAzfEXiubNkeC/gfxAgvLOadBpPJ69v6Cc8TrqnJvBkgZHX4T47l6IyIT0fiiEoa3/AoZfiFKwBiW/EFGxEcbdaYRCqpEoQ85A2/ApWvoo1KXvocT2BWGHY69H+fRySBojXxjEpBsQs+9ohCZh37u+YvEfFH33K2n/vPUABFCBfXOK566g6Lu1dH3inPbCgfWvKr5cIECxy8mxc2cxISmF/xt1bA3OC0ZKBnYjBFtrUAJBkOAHEvRMs+uy2HDh63S64Eg6X3N8i+K2S35ax46H5zDwq+tRzGbvLa09bsr1117TBKM+Vbh9qOD0Hi2/Is/aCAnhMDa14TfN4RFc/rPCOxP8/R1qnpWg5dz5Cr/lwxuj4PiMtnljZb8fb1nPTauXkmix8vaR4+gTG98hwIFPAnKMS4fez7C/7gJtPXiy6gvHCxKUi75BvDMNLvgcbesSFIuK+ucLeE55HmXpZyjdhkNiT5h9B2L6gygyn8Lku8Rm248AACAASURBVFC+eBim3gbblyKKdqKEmlFCUxAxqbD0FUT6kWCNhy6D4aNLYdQ1qDLVcsZgxP9Oh3M/ahAkVGszzMko1v37JFStuA9z3BeY05a0EUg0xLjrkTl6ltTOfzu2bTZdI3qR3A2e7FMxxdyEEjkdh9vN9PlziLSE8uG4SR1I49GIyQQfOaglEAQJfssns79lv/k7vV65iPCBvnC2xtyAG94DK8Y9Qp83LyOkq1/oV/ObC+hG21MOt/4F744PTLOfboD4CHTnyIaK0wPn/yj4aGKNytr/uRV58MseOKM7nPQ9LD01MOPaXyuPLV/EQ1s3cHxcAo8NH016RITXklQHNHWANVt74hN0e/kSQjsVIVyb9wkSdHPDO6egjLkPlr6LmHgHzL0ZMf0lyN2OsuYrSBuBsnc5Yvw/4NNbQJob/nwB0sYgdv2K0m86VOxEKa2ALiMRq99CpB+NsmEe9JkOq9+FCfcg5j+OOugsxOLX4Ixn969JsPZCNWfWvzFLkwVQsWo3RfNuJvnMTV6Cp7YLgdx0xRsknXck0eP6tv6ma1QPAoPg6YRa3A0uTeOK339ij6OSecedbLRU7UDdcqDfqKEFHzrsJHCYgoTaeY+1KiebrngTzeWm1ysXY4pqBhNena1TMHsJxT+vp/uT57WbLdvugkGzBEfHwVndFT7eCSEeOKEbLN8Ls7LgqSPh9c1gcsHyUsGHE+DVjQqL9ggu6q3w5XZBqKqwsFTQP0Kh0gl3DIXlhTA1Q5BkU3hkOQyPlSBBw+FU2VkJT6+Dn0+GuxZBnl2w166QFiZ4YTQ8twJ2VylMTIcze9Q+gZ9fBRtKjQyLzSkNmVGqsxZKbiGhcffiBby2ewfndE7jjiFHkGgL6zBq5gZOf90Es+3690k4eSBRE1IRep4EaZqRWilv+K3MYfDWFLSL58A7p6Ke+BxKqA0R4SVtCk8wzF0VRWiOEpTodD0ngFKchTCH6CROSlEWntAolIh4FLcTCrZCXCa4qhC75O0+DC06HuIzUGWdikK0qkLU2AxQzIjZtzVobpBRNqr1CIQa06CGQHM4WXPSU6TfbCZi6FZMyc9616MNDj4By8c+yIBZ12JOlMmgOkaR6bJlngQ15p+okQbBk3xTPJrGP/76lTVlpfx0vIySqp0mvWOMPjiKQ0kChydIqDZFCypXZbHx7++QeOZwUv5+nJe6tuVLvPrkp+n2+JmE9TFofNujOF2CC+fDBxMVJnwr2FGpYFJgRDQ8NhL+uRiePQrO+Unw9QkK3++Er/eCpsH5mTAiGaZ+pTF7iqoDgXHJEGaDLzeBTCh4WiYkhMJDS+GIeEjw8lpds1iQY1dYOAVOmAurTgOnW3D5rwrPHQNn/SzYXqlwTgb8Z0SNZJ5aCYvy4M1xAqscaBPL/vwsXG43Ny38hXdysri2aw+u7TuYhFAvtXGHVt4ah0DeWwuw78on/c6JYP9dT5/lK0YEg0AUbISIzigfX4o47wMjvW/t2FP9kNaEpodLGseO7/jx4+2ojlz1ZlqUjoqbfkYJjUVLH6S3KWuqQkUo0n0RKC3CpFUhout74esgIXQMKGE17h1enC6cGuvPfpa4KUPodNnYNvfbqVi+ne3//or+H19Th7ysiZsv0I/LDJdaMUINQ1FCa+WMkBqFG//6lZVl5fx8fE3EVQdQeAVaCsH2OoAEDluQIN2zs1/+kZy3FtL9/84m4ohuAbxNCpYf8xADvrwOc1wTGSEDuCmkJuGq3+DN8fDkMih1Q68ISI+CblFw2xJ4+1gY/aXg+t4KH+yAy3vBvGzB33oq9E2AU+cIPj9J4ZFlgvEpCjar4LMNCpmxsCxH4FEUPY3y8ATD3HDab/DHJJj+k8ac41XOmw+X9hCsLVTIsguGxigkhgny7QqlGjwoo+KATzbDoyvghv4QZRWc1K3pIMFfdD7iqQq3m5l/zufz3Czu7j2Qi3v0I06CA3+WLePIC6DkA9uUHF3l8u3s+PfX9PvkKkTldw0f7nrUgZEfwzd/XYp1Tg8j8rV2lEPNiOt6w0k9jI8YzBsF4n24Nh2YSc8ZUjc/g/6zCqptojcss6YnR3YhGy5+naQzR9LpkrF61FCgo24OtBLb756FrVsiyZd404gG8CtwoL4P+PcGcm375CNzd1y98Fd22yuYM36Kj3ut3bSWB5xL8IGDVgKHJUjQHC62XPsu7lI7PZ45D0tSVIAXULDsiH8zeP6tqOHtx0KkCdhcAr1iBJpQWJ4PFW6NkYkywQ3sKJN/gyI7LM4XpIRB/ziFraXQyQZhFlhTKPTfZZXLw1tn/qWgStA5XOH7PTAwBpweQYQFQkwK5S5YVgh9oyE1Atwe+C0XekeBU0PP0/BrNmRGgtUk6BppHDV7KmFLuXFUh6oG6GhJcblc/P3PX/gkZxcP9B/KBd16ExtiJHQIfGRHS0bauLru4kpWTXqCoYvuRjiWgSe3cRUb5BCVZgqZcMnXRPU//I7/mt/VhFLWAAs9FbQvmRQaMjOjrvquh+2kGiEBJXRYrfHmvf8Hu5/6gW4PTSd6fD8jwsSdj9CKUGVmxpZhxEbIxoA+qyY+Ru8XLyKkR/PTozeis8A8UgfsSY3CWT/PJcUawnPHHBeYPoKtBCVQRwKHHUioXLubzde8T9zUQaTOPA4lxIg6CHRZfsyDDPjyWsxxHcfOGeg5doz2fLYjYzQOt8b1f/3M+3t2cV+fwVzUQ4KDmgRIHWPMzRvFpstfJ2H6MGJP6IqwL0RRD5QoqXn9BKqW70xTQo5EmKL1c9+xs4Btt3+sazK6PjqDkNS46u48Jc+ilb7ujW5oPc2OD/6U/bqRrOd/oM/7V+ljaJuw28ZJV7gL8eRdgRp5BWrECfusZHe7OX7ebE5NyeDmISMN4KfUUMI3rrfgU0EJ7FsChyxI0FMieWPgffQ3eW8sYM8rP5H50BlEj+3dqvbP1VOfIuPeaUQO79YGt6LDc4vXaGM1PfPjjYt+5p3d27m992Au69nHa1Zo9zQHAVucsj+3sPuxr+n7yUy0yh+8KcED1nwrNGS8eYrteLQiB9sf+JyyhVvpcvdJxE4cWO3/49PseEpeQit9G3Par6DUztLZCoNj4yWvkThjBLFTBrdG8y1qU7hz0faciBJ7+34Ingx/lVKXi/5ffcArw0dzYka39k7r0aJ5Byt3PAkcuiDBl4xE2kndgq03foQru4jMp84mJDXWoLRtRYe1sj82s/1fsxnwxQ0o7UYa0/E2XEBHJARuIXho2UJe3L6Jv/fsy9979SM+RDp76XfDgHbX3o1pdhcrJjxC//euxJJegXBt0DMfdqTiMzfIg18e8869Sex+ei3FC7aQdvV4EmeMRImw6mujO1bWKm3nkeDYkcf6C15m4Le3oto6HhWzEd1wAmrMbdXRDQ2ts89LZFd5GT2+ncWOE86gU3j7+UF1pL0YHEtgJHAIgwRD7ebcnMfGa94mZmxvUm+YjGqTHyhfaU2YAOvOeZG4SQNIvsRH1RuYRQu2YoQyvrR2FY9tWs0pqV24te8QUiIOddOOoHDOcnLfXUif/12OVvl9h1KR++/Lovn55H2QTdVmOynXjCd+6jBMUdLs07rvXGPfjU1XvUXsuN4knN1OfOMHGqjwIFzbUCS9tilmn0/7HFQl3votexfnLvyZHaec12H3xYGmHfx7x5PAIQkSfC9O7kd/kvXkd3S9/xRiJw/QVZhtWdylVayZ+gxp1x1P/Ok+XmMv9q8hSOwwH862lE1z+/IIwYdb1vOf9as4IjaeOwcMo3t0TAO30ub20LHrSW3CqpOeJPP+U4kcFQauNX58DK2nOalme/SKx58Xwsc2WrWtkrwP91DyWyEhKaEkXjCamAkjUS2t4/fT6JXyhlvK5+W4K9ftZtPMdxk454Z2dSw+0PhrokoO9KTxd/lleWLlYj7P2cMvE6d5o1+D/gmNk17wqX1J4BABCb6DV568BkPN9js/pXJNFj2ePh9r14T2UTwLcOVI0ppXdZCSet3xNemZqw0e+qcruEP3KwGDdOvH3Tu5Y/VSOlmt3DdoBEMSkvWQvxrxHR5yrFi5S8/tMeSXWxHOBYDdUN8HiB66/lIYctUPrTpheY4dVRR+nUvRb4W4Cx0knZZK7HEJWLvFoIaN7WChpcaxu2b6s6T9fTwxk/z40jvgG9gwW+q+Bmpwp2hCcMzcT7m0a0+u6DNIj0A5PN6KDriAh8iQDhGQULMa7t2FrJ/5NuGD0sm4aypqqDQv1MR3t/ULI7+posLO9js+xZlfTsZ907D1MhIsGZ7IQYiw73fJENC6ogJuXr6IgqoKHh1yBGNTZMrstl7JjvPGy8Mj6/FvqFy/l56vnAv2n1ttcHqooxfQygNWeDQqV5ZQ+GMBZX+V4ClxEzspkZgJcUQMjvaCAg1sY1GwdaxlEpDz2k8U/7aJXq9d1iJellYTuLdhoRXjLrgDU/gM1LDG5U73OWtXut3EzH6P7SeeTuohb4Jr7ZUItn9IgYSir5ez9e7P6XLHFBJOHd7OHwGfR1nNYVb45TJ2PfEtMeP60Pnv47Emy49qsOxLAnsry/nXyiV8k7Ob//Qfxtnd+/jZWn227Y5h427bVRQIp5v1579C5PAMUm8aAs7VrTIEKV3HLjtlC4sp+6uYsqVFhKTYiDomjpjRcYT1q+0kp6+GRUYuyMyLHWtt7NtyWX/uy/SbdQ3WTjEdC8DUWT2Du2ESphgZ3WCkZW5K+SlrB1ctXsCqqWdjkclNgiUogWZK4JABCTsf/IqS+evo+eIFhPbo1ExxtGY144OpVdjZ+/pv5H38FzHj+5J0zihsvTvXSZ/bsT6urSmVhg6SMpeT59et5KWt67mke19u6TsIm7njeaC3rlwO3LpW6UCm/+50ydEknJ2E4trmV0keDEbqZp/PQP1dVSdns5cPwrmjirKVpZQvK6NsSZHeQMSwaKKPiCZyVCyWBMP5tyGYJsxdUa29Dzz4NnnCL1rC6WbVSU/R5bYTiTm+f5v03pJOjOiGyajNBAlydWb8/C0jY+O5ZeBIr8ay/TSqLZFFsG77SuCgBglS7eopLGfjlW8RkhJD5mNnoYZ0zMPE0CvUOBF5yuzk/u8P8j9bgjUhioTThhM9oQ/mmPDqHVGTGbCpLkztu6ma07uUj7SnfrJ9E/9atZSxySncM3AYncKC4Vz7k6ersJx1pz1H0oVHknR+Mrh26kyWmp670gAJEgp4XXWMw0JmN9RjFTU8pR7sm8opW1dG5coyypaVYIo0Ed43isihUTooCEmviUrQkyz67GTVMMGbD8GUjhLSQZgUq/GBkS9lw4WvEDYwlfRbprRqfpTm7P2G6gjhBPsyFEsXMDeP/8XjESTNfpclk6bRNVJqLetrNwM13mA7h64EDmqQUPzrRrZc8x6p102g06VjD0InHYGmCcp+3UDeJ0soX7qdiOGZxJ8wgIiRmVgkK51+DfTfgIcW65vvbrMsP5ebly3Eoig8NvRIBsYn1lFXH07alaZ9cNxldtad/hyxJw4k7epMNPcO3eFFcinoji+qdGoEV5Eb6WhYubWCyjVllK0qwZ3nxNY9nNCe4UQNiyVqaDRqglnfcoYrnLfo6ED+xrsZazkwqmDuiuJNp9w0h7umzbUxT/vAtQ5mFIWtN34AVQ4ynzkf1eJlzWxMQ+34jH6c62vog3lNG4xPBnN3buXOVX+x8MQZmINmh6YJMfi0cckQdRlZDgLBCLemkzPlvb+YXi9fgK1v6kEw6gMPUbM7KZq7kqJ56ylfsZPQLrHETBxA5LAu2HqloIbJULJDy2Evu6KcB1cv4du8bB7uP4zTMnvVsUAEwcGBdw4Il8amv72pHyyZj47HnbMKR1YFVduqqFxbTsXqEjwOQWh6GCFdQokaFEX4kChCMsNQpOpBLzUuijIRktBhguG4aPzsu4n6mxrMKNaBYE4ydqbehASyiveAa8zoW++ZbXd+qqeC7v3qpa2Wgr31Rt+ylo2lEBz17Wfc2W8IJ3fp1uH8RFo2w2DttpDAQQcS3IXlbPnH/1AsFnq+fAGKyXyonZvGuns0ypdso3DuKipW78G+LZ/w/ilEjelF+IBUQrsmYKl2fOyAB6k3Nl3PCNgArpE551/dvJb/W7+a8zN7cEf/4YQcVpkpW+Z4KTSBJ78MZ14pzr2l2LflUbVuDwXfrvXeQFWiju5CSBcnkYOiCR8YgSU51A+A+QODA31qaoidvBdcw4FUJ24aBLR/HoRqBYfPtOJys+X6/6FVuenx3wv1FNA1zJdNBNr+pos2AulCK8VT9CRq2ImotlEHWqCG/+7FdHn2MnrOmcWuaecQafVPJte8ZoO1Di8JHCQgwVCxVyzZwaaZ75B83hGk/GPyYYKKvbc7l5uyRVsonb+B8vV7ce4qRHO5iTq6B5HDMgntkUhI52jMSdGokrTK0Fcase2S8c+bSKae9aIV97tx86wTpy0Ev+fs4eK/fmN4TAxPDT+G5EPJ76AuKPL+LISmr4M324D31u1dW52Qx79I1T54Kux4iipwFVXiKijHubOQyo3ZVG3KoWLTXixR4VgTI3WzlK1rHGED0wkfkIa7qIItN35A1JiepMwcjjkqC6GVGboAab2qUQgY9vk6+RVqVs3/QZ0BSR+XpkSiWnuAGu+dUytuokY3XWNvd+eV6imXwwek0/XhGSjmGu/+hjFrLYFUK1VE9bo0ACokJXeNSOrv80aPex/nuycXz54p3rTMM1rWmoArF/xIRmQUdwwaflD4ZLRswsHagZRAxwcJ8kbq8ZDzzh/kvPYLPZ46l/ARXQMpgw7blv8hK1W/im4h9h4skregoJyyhVsoXbgV+9Z8XLllOHNKCc2MJXxQFyL7p2PJiMMaH4EpNgxzTJj3gykd17wX/GoTswQTTbxhNUZy3u+v/OBml5dz57KFLCot5tXhR3JUp7R2zGDRmME34pl6p45PheI7a/yAkpdzTIdvdiee0ircZVVopXZchVU4duYjOQUqt+ZRuSkXRRP6mklnVlNMGLaMOCL6pBDSJxlbr04oeibDmsOxerTeA2zXA1+QN3sZXSWh0uRMMO8ErQRFONEQqDLRjndM1XoNPxBRCywoFlBiENb/Z+884LOq7v//vvdZ2YsQwgp77703CojKcKDWbbWOVv+ttlV/VmttHVU7bLVVa6vWURdDUFGWIBvZIHuEAIEQssez7j3/17n3eZIniySQhAD3+sIkz3PvGZ9z7jmf853tUFUZJrge5koN4K7yFoPoCHJX72PfA+/T+mfjaXbn2IomPVUUYJovyMOIBqII9AIQ+ZKpgTQiFH6EIqURToQtEkWJASUS5O/1IEnR/afQ06egxv3qrFwgy3fTr2kkf/4B2y+fQXMrt8O5zLRL7tlGTxL8uYUceuRj9CIvnf51O2q4K3AqLhPX+KIcuCBJMA2Ygru5uT4H/R3K2I8FVnr3vhMUbUkjd9sRPIey0HKL8OUVo+UU42odS2Tn5oR1TMLVLglHs2js0WHYIl3YIsNQI5wl2fnqAlTZJK/m5939e/j9ri3c16ELv+zRH1vAiKpcAL+6qPL8lKHr6MU+9GKP8VMrcqMX+fEXuPEey8Gbdhp3WhaetCyKU7MMOwB7dLgRFtgWHYY9Npzw9gmEt08irGMzwjokYYsOrxBpoNKTcBXSCwmEP6OAg7/+iMLd6bR54krixndHdRYitOMgpQvChy588s5AGF85vaQKz45QpWg6CsXeHMXWpFFbx0s15NFnF5C/9Shd/30X9tbxVdCYyhDUEFou+A6Dnmn2s5KJaaasMj1GSsQNUj6jJKA426OosaBIw8g6IFDCg160FNXZFRztznlOy14/t3ktJzxuXhk69pzLswq4dBBo1CShaPtR9t77Dk2u7EPrx66sOCrl1LolVs1185peVLPAsE8V4DlyCs9eKa4+SfHek3hP5BsETCv2Iv3utUIv9mgnYW0ScLVMwNkiDmeLeOxJ0caJVg1zoDrthkpDcdpRHKrhdiozXSoOuTiWDdyy9fQpZqxcRO/oGP4zfAJxYeH1nH+zmmGrZI+Q+n38OrpfA79MrKOhe/2lP71+dI+Gv6AI7ZS0A8jHfzIX76lCvCey8WYUGJIAW7jDiPApswpKfORPJdxBRLsmhLVJNKQ64a0TcbZKMHBsyMt9MIPUJ+dStPcErX46gfgremNPPHNCrPKOt6UuuQ3ZckPuUuUbLdw+sr7cbqShbjqzHylPTq9R40z1j47wpYN3Lyj+Gj135psUcHREsbeWEaUqXa8aUt1XWVubz32fdROuIiU6pg76axVxKSDQiEhC6UIg/BqnPlrLsb8vo+NL1xM9onPZhaJEhahXmbQpaIkd1IifvwWucU2jssttUGEeMFgwRRRoOYWGzYPneBaeo9l4jmXjSc/Fn1mI7tONaH/GRurTEH6f+dOjg6Zhiw3HER+BLT6cI7g5qrvp0aolrZKaGFIgW6TcRF3GZqo4bSbRkD9dkmTYUW22Up2p4f1Z1gU0SHaMn7qsUy70sk1yY/eiu/3mBu/xI7zyRO9FK/QgPUf0fC9aUTF6oRd/gceQrHhzitALfeBQsNnthjpGSBJkV42/saslZMgW4yQsWZImaQcQhzMxGnvzWFxJsdgSzHgOZz7pB1RFxo31pN6pZLqFKiT8mQUcenoOBRsOEzugHc3uHUN4p2aB8OVn2JDLalEaeFKHOGMG2iGKvOSu2MOh38wmvHMzurx2B2qMq8pDfGm2RLMAXZxC8WxDkdkWQ7w2zq5jZVU+upyyjp6odhl1srxUoWrCU77u0tlSB5IJY8oJ/rTte1I9xbwyWObVsC4LgeoRaEQkwZzEWoGHQ7/8GP+pfDq9exf2yDCzFzVYpKSeVepYjWAxwdfTOEAHX2LTiO9SvQwUAkZqhvqiXPKI8otSZctZWbIVFL2WYurJLWTJD3v534YNTI5vxpSEtqb+Pd+DXujB7/agFbjR3D6QJ/RiHc3nQ7j9aG7NPM0HOUtIe0vGTDbbiBYkTOmFKgIndwdKmGJINWwu80Qvf0o1ihLhwh4Vji3Sbs4n+XekC3tsBGqsKfIvmWQhQvegUsdoT3BGGaCY+m/Tzc8kVijBjSz4s9QNMOivX7rUB+MN1M3if6b5XEETEdTSCZ3Mz74n/d+r8Z3MJnF6f5reMBRXS5mYyVXiyhjS8/P22hinfimhEgJfZj6n52zk6D++JaJTMzr++UacreLLDt8ZAfGDdwv4TxuhzcxxC45DWS+Os+mwbKuMS6HK9uphiPChKIbaJnjVjCQIUYA/7z3srmEoYX3OpikVnwmsha3nfcDaidNoFSWJbZloGHVTj1XKRYVAoyIJxXvT2XPHv0mY3IOU30xDy/8UvWAuwh6LLfwK1KipxslS+I6ie3ch1GhURytUeytzUHQfQuQZJ1GFMFAjShZ/aZBkEoRLlyQEuFZgSSwRx4QskpXJ4qvT3ZQuMqeKi7hq8efkKiprJlxNXHiA4JWtuNyGXMn7VLN1tMLGUBNpUck9VdZRTtYS0E2XbOchX5ctyzAFLNluatOF+lxRqiJ6RvTPAGGW6qaM/64k45NNhjFsVL9WJN86wvCWsMWEBQwk67OVZyhbF/hziyjceoy0l77An1VM3Mj2tHl6Bkq4Se6C5PdMhrfGPXoxeNbIoBLmc9KLUzd/1sUVmj5bESrCICCghI0AtXaRQ4X/NP70y4zcDUrUdedsVBx6AHhsw3eEO1082XtwnZhP1AV2VhmNF4FGQhIE7oOn2PWjf9L+5VnEDutiTF497x20/I9A8WKPuAMl7kcGklrBAvScPxgs2BY+HbXJY6ZrVvEqtNM/M3Y11TUOW9JL5mLg2YE/41bzRXMNw9707+aI+DPQ8t4FW6yhR1QjJwc2HmnIdAqQJ1U7qIGTilmJYZxknCIDJ4SywsYyh7Baj3z5je6MG5/UpZcEwql+763YmIpbSPXSg4ql+HSdf+zawpO7d/B2n6FM7yjVQ9Z1ISIg7TPyl+/m+H9WUnzglKGaiR7YmsSr+xE1tCO2CKdhTyGlOMHrTMSreuIWyrpMTyZJWnxZhWTN28Spjzeg+wXhHRJp8+sphPdJqY61VoDdaIMoQrhXl4SqbvCxCRuEoibUuFozd8PkgAtk7RM8nakiv99P4rz3OXzVLOKcIUS+xq2zbryUEGgkJKFkuQmGQinNclDZ4TZEZF6yCOlSvJuD4jtgWCoLWwxq2CCTJHh/QMv8E3AMnP2wJz5rqi98e9AzfowuI907u2FL+pcpgtdO4D8+1Txh2JJxtPjSLEfPw39sDKpQ0WwOHC3lomOeHn3ps0D6j9uaYmvyG1BMKYbmXo2quEBaPjtSDBcqs6xiI6KdFEwq8vugD32JrtoUcMvLPOiYIm4jZ3yZM6t5T9Un16rEiWU/D4bSDfWaMCUy5cYmRLQuoUoryKfrV58wMS6BuZdNM9zqrOsCRqBEnRKYf5pO/uq9nJ6zidx1qYZqCK8PZ4tY4od2IHJAW8J7tC5xr1VsKqiqoQYSipzbAUVN4J01jER1HflTRk6VsT48e05Q8P0hslfsoWhvJqrThi02jKTpfUmcNQxHUsDAspauMMFgsoooRrhXGSf7MjEiGnCYjLaED0JVpZdI9Zcu3TDz56C6+kM95MOYtnwh16Z04Ja2nQLqM+u9rX5ULs07GgFJqHx7K386L6M7M/ZLMzCMsYmW6IVDwsWWMwwzFwxp0SxPQMH8B8EtOOAsXhKETv6iGaQAUYgSUGcI3Y0/7x1ULQddz8fR9Pcls8Z7dAwKXkMdYmvxNSimeNF/cibCl4YqdNTkz1Cd7Uzbi5M/QfduMEiDPfHvxgIia9WznkIUfYGOHVvC71AjLjfK0Yu/Q3j3oEpXNGdvFGcHM2yuLl3X/CahUBwoAatqg4AEY+0bBCRANYK4lNgjhOJfMfxRlHRghAAAIABJREFU6beh9+l4NcEvNqzg3fRjbB53BR1iA+5fjUXOfmm+z3XX68A4luZhCCZ2knNJw5N6msINh8hZd4Ci7ccNNYBAeocoqEJBM+INmBYNxlSTEi8pfheqqQ6UREK+tzaFqO5JRA/pQPSYzkR2bWXca+j2JcmQc7zEJaC2G5kp7teLlhjlVC/VqDv4ypcUJCcibDiK7cxeJUHSfy65G6rryf7sbK5e/hU7rr4Rtbw0srqHre8vKQQaAUkw8a4gZq9CqBhqBFZeJxy0N6iKdpgHkdCFxqQi5v01WYDM03dpW0tP41UvQHJxCsaxLzWo1Ly7wZ8O+mlsYaON2PeyJVrO3xCFXyJENvYmL6GEjzLaqGW/BPn/Q1cUHDGPQuw15gKY9y5a7l+M320x96LG3mPeX/AFetbT5ueRV6FK6YYRxGcT/ty/oSpJqGH9IWaWaaqn5SO8+xH2OBQ1ETWwkJnYmMaEwX7sysmh5zdzub9la/424rIziTEuqZfpoupsSVjtAF03MkdWH6wvRBBRBRxVHwrKvIFluetZnHZNUoB7uZGYSgi/8e7LQ4IRMOk8XVIKaAufULmLZCVtqkvOXX6N6rfwM94cMJIBTZvVaPU7T5BZ1Z5nBBoNSahPHM7+RauBS0U1Da/JwlrzvleUrxjEQi9AGjrZbRFgSzLdGL1bEEVfI3ynIWIgjiip1xRoRYvRTz9q/K6EX4498XmTJLm34Dt1l/m5sze2pP+YzfIfxX/iaoMcaUoSt+6+n0V52eydNIW4LBkaW4qXm+FouaCU1kniItUttniTAKlnEROg3KCVqkFM18Hg12VuO/uBrvkQWHdeMAjoni2o/pNlDBPNNNnB9yi0K6WptWvWQVMiKaV1lRk+BpJnV1qULt8L1+AzkmshitELvkRx9UJ11oONj4A3d29hW34ef7PcIWs25JfoXZcESagYuVaKQKUDlBSB1kSCEJwdQXFpxb8r274bck6Z+2Nl9gehnxl6mhK7D7N9sv8B1y8hvUMC/vsy/KxU6YgiFPc6DuakMvvgToiYxc/7DcCuF6OduBnNfwy7tBJPWVciFtbTRqGRbxAIe8tlZiQ6KfU4Pg3hP4auCBzN54JNBp0R+E/eg/DuMFqhNn0DJayX8bshVfEdQVUTENHXYZP5AiRv8R7GJvthizdsPQyPF6T3ijwlBse1IdG36mpsCAi8UPStkQUxdBM3Z7/p4RR8Z0wCKjd9XcbUItsryPZo5HoFmpzbCKLsKjEOSA534JD2FoEOh57OJQHRdSmtCHg1VElIAOcAFHvQPqHiGiS0k2jHrwyEZT7H3A1VDI6u6zSZ8x6Hr5xFrCvoBtzYRtJqz/lG4NIgCYFXusuzK9n16EhUM5hCyaZmLhYh2vfARmMsBWWM90rjNfg1wcA/rmDrY2MCC45Om+dX88PPhxHlCslZ3yCnWynELF38SmNKlCU1JaLgQL/KT74SQy9jzTIXrmK/n1lLv2JLcQEbL59G07CIELepgJ5XLrqG0jWgikG6mJnJpVBcgZIUhJYtd36Eno3q6gGYC5OW828U/0E07RS2hMdQHG0MaYF+4gE032oQdmxJr5vqEWkkmvk4FC80dNaO+Bf4KiOFt/bv4tPLpMTDui51BIzgosXSDqE0iqIMcGQL2OHImVrg1fk0rZgPjxeyvtCP0E3LnjAhaOOy09KpkOCQNhEKmq5ToMEpn85mtw8/qjSlkPG3iLIp3J0Uzs0dIukQ7TClFDbVyLtR1SWXHl13oESMCdhIVbxT5m7Q0q/AFvcIavSs+hlSAZNWfM2DHToztdW5h36un0ZapZ5vBC4RkmCeG5J+s5wTT4/hzo92cM/glgzvUN4lKWjQGGLTH8jeF3piCL7+mQVemkaZ3gqFMuKfLogOOz9pc802BZNABY85ZQ07SqQd1WlRAmxiUVoq12xYwe869+Cn3ftiC1irBydtiTGoPIWVGH2WTunSELTlJRwVmVP5EMBmKZLk+E3pgFRZSKM3I3lREW5/MY+sXcaHp/MYF5XIK0Mn0DK6dr7o5/vls+qvHwR0vRDFvTJQuCSuUsqk8EOOj19vz2FNoc+Ij3Bf6wiubBlJxygbLpuCQ9r7VBpGJShtMyUEmgDp9uvVIcensOR4Af9KLWKHV6OzU+XV3k0YkuioMv6CKXHQDVWCYm9ZKQhCL0TP/Rdq+GiUsH71AxSwIPUAHx7ez/tjpOrQuiwEKiJwCZEESPrNMl6d1pn75u6hiVPl3Zv78ua6oxTme9iUUciKB4fw/OKDLNl7mh7NIhnVqQlbD+Ww6kgO8+4ZiK4JRry2nlibwl9ndufWj3eS+cw47n5vG0v3Z5HjF8y9ox/J0Q5uenszHp/czgS7HxuF/YKwIDY370Kfj5tWLGRPcRFLxl5By6jqrbHr8+UKpRSHcnK5Ze0SthcW8HyPPtzUviuxzroVlVZGYcqyoHLi4dpIiyrYWlQfz6b64gMkrOTGUANbOTLn0N76HNh6KlsvWmZ6GklvS5nYaEcOfzleTHubwtM94hnSxEG0w5QG1NUlCXGRT7ArT+PXW7L4wa9zX/NwHu8Za6jjzMskLKpqStykJE1KE6qfAXXVyorlaLqg7bz32TLlGpqEhddfRVbJFywClw5JEIJmT64g/enR/Oj9bTwwrDUdkyIZ98oG7h7UnJWpOYzv1IRdmUWMax/HNQOak13o49VvD7H6UB4zeyfx9Z5MXprRhdYJkYald9ITyzj1+3GEP/4tRc+OxuPXkSqNJfcP5ol5u/n4ngF0evY71v5sCInRoaFZG8d8CVGwBBqk8HXqQW7ctJrfdenJPV164ZS5FM7XFWLosTXzJDevX0GWx83bQ8YwMqkF4TK3whljRFTfcEMlUuJ9ErIdB341F3PTZqP6VNoh3i7Bp4I2EpXs1WbrykmvgjqhMk0p63tTEqY4GBG6km6WJRblRUehLr91uFNWD3c93xHAv+gbwz344U05/PdkMfe1iODezlEkhdtkeLRatyFgsXPG54JzI6iyy3BrvHYgn1eOFDEu1smb/RNJMOIWhSR9l3MjbDCKtK2ppF3l1aC1bngNH5ix4mvuadeZKa3bnlfCUsPmWrc1MAKXDkkIUTdIknDv4Fb0ahXNyFc2MPuOvhT7NVrFhvH0wgPc0CeJkZ2b0O+Flfz31j7M336SOIeNNYdz+NnYdgxqF4dPE8T/Zhm5BklYQtEfxpPn9jPy5TXMvXcAf/7mMK/d3JNuL6ziu/sH0jS6bk+7dTdPzKWo2O/l9tVL2Z2fx+xRl9MhWsY9OMMuVHcNqKIkkyHsy8nmpjXLyPF5eWfoaAYnJmOXBorBGBnn0o4gEahsaQwhCRXcZg09SuC0Lp8tf9QP7MnS9S4Y+rjCpl3VZlVqOFImsJjhM1+GaJTqdwKmmgHKYbar1IjVrPmFTRDrhK2n4aXhEOmoXj5xLtCer2d17wE+2reVh/bkcl/LSB7qEk28U4ZILpemoVYNNF2YK/eKCBZkhrk2jH0NOyYhh59cv85X6R4e2plN/wgHrw9MoE1kQD0nh0CqG5w9K84G4cZfvAq7owM45OZdf9enB3fx1YkTvDVcppCuPYmqv5ZZJTcGBC4dkiAEyU8u5/jvxvCvVak8s/QIn93ci63H8/nLyqO0CleZfe9AfjV/Dzf0ac6oTgn8as5uFh88zcjW8XRPCmdG/xZMeW09uX7B/37Um3FvbqHg2dHM3XKK/zd/Dy50vr5/MF6/4E+LDvDPm3vT4/mVfPvAoEZLEuQ6tfzYEW76fiUPtuvEQ937Em4PdVkMOc43xIwN+IzmeT3cvWYZ67JP86/BoxiT3AqHGlAYG5uweRo2nVPOfmH7/UY4kAc94mFVBjzZV9AvqWIsjTJ1lGzkoeauZTMVyibJ20Z+ASuuMGIGlb3OtEeX8Zs1b/Tp0H+uYPvM0jp/ux5+2RciqxBShVYxeAE80wsWHROMbgVXp5w9Zg0xDc6mDp/QGfrV+7j8Gv8bnkSr+bejNh+FsDkRPSZBXMsAeapl6ZsXIHpMQHHWQBwvVRzSK1iYAaFEznFsPi9FTdqy5GQxd2/PoXeknbf6J9IyQso1FJSIiRXmsPBn4k+/3MzdEH39Oczw6vta5PfRYd4HHJr+I1w2e73WVX1rrDsaGwKXDkkoh7xUDbjs5qYjPRVstsrDKXn9Os7AffJeufD6yn0mP5dGi2awlsY2xGZ7yroGmtuHV9O4d91yNmSd4v3h4+idIAM6NfRVcbf8cP8uHt6xiUc7d+euTj2JdJxFnIUadkOShB5xMKMDPLlJ0DlS4fODkKXB/V3gwwMQGyaY2VahRSQ8vV7QPlphURZ8OhZWH4dbukLrT+DwdXDNQujfBLZnw+2d4Oa18MEw+PwYSLPKdbnwyVhoEbCxnPYVxNoFuT6Fn/aEjTmw/iiMbgErTkCPWNiQJZg/RaHlhzA+UXqcCH43GGYfUgyS8PetAq+msOA4rJ0BbT+Bu9sK3juicFki7M4TbC6EyU0UjhVDajEsmQLtTc/UC/cKkfak5ucxcukCnuoYzp3tIo0Aj+KjW1GmvQZhAbA3fAp9pqJs+wrRZQzKib2IYxuhwxho3QtO7kfZuRC915Uorgg4vAnFV4iITEJpOwB2foPuzkNp1RuOfI/Sqh+i3QA4uAHl0CrEqAcQ2ekoWjHKrm8Q4+5DLH0VxVcAY38K2Sdx7/iChU0v58GMBCbEh/FK3zhiokeATbYxxGBaejecmIwa+2vU6LrN3VDZgI9eNI+X+wxmUFLzC3c+WC2vFwQuWZJQL2g25kLLCQQ2nDzOj9Z/x6wWrfl174FEORreZsL0aJCX+X+338/dq5eSWlzIO8PG0S4mrt4RfWYjfHAQkp3QOR5eHgZT5sPCqwTPblZoFw4uO/ztAAyMhBdHSst2Qc/PFRZNhJVH4Y4eEPEBFN0o+PUqhZdHQeIngrSZCp0+Exy+TmF/DhzOFfx2u8I/hkK/AB8bNA++mSTwaAoPrhN0jYcukQqdY+G9A/DX4fDXHdAnFn60Go5eD0cLBDeuUJjQFH7WU9BtjsKbw+D7kzC1jWDSUjh9o8LAzwXfTFJYfATuWS+YN05h6RHBO6kK/xsDoyo3rK93zM+1gjKRAwVsPHWS8d99xdejJjI4coehbJEif/HRLajh7RGqHWXs/cYGzub3UDqMg5SBiMW/Q4z+OeqqvyFG/xJl3b8RQ+5AWfMWos8s2PQmjPw5ytZP0PvfjPLlQyij/g++fQYx8WkU+XPqn1HWvoPoMwNl+YvQ9zbITEV3ulDiWyDcRajeXPQek1A/fxJ99H2oK14gb/wfePOEjb8eLuDxbr35Sdf+pht2wCVI1/MQWS+hRk5BCR92rpBV+/xvNq8h0uHi0Z6mm7F1WQgEEbBIwiUyF4ILq/z56Oa1fJ52iNeHjGZ0cqsyyaHOl6Y6o7iQq5Yv5PKmLXii7yBD7Fm5W2TdDliJJKF9aUyp6V8I5l6p8OhamNhC0CxMIS0fvj4OvxkoJUbQZ77Ct5cJ5h5QeKgfJL0nyLgJntsETw5WSPoIUq+B9nMg7RoYMw/+MRL+vhPu7S7o31QqyQWj5yl8NVVQ4FF4YC10TxBMagZOFf51QOH1EYI/bVcYEA+3rYFD1wmOFcCtyxVGJcLPegl6zFX4dhJkuaFNDHT/XJB9k8KIzwULLoclR6BJNDy2AV4fpjD7gGByGxjZopGKvaoZ4qBBn6SYGzPSmbxyESvHT6VLtA6eLQHXWQXx8V0o0/8KrkjDbkSSBPHlL1FG/AzRtCPq5o8Ro+6HZc9Ch6tg4+vQVoZBt0Fyb0j9BoY8gLLib+gDbkFZ8hRMfRkx916Ua96Ej25BTH4BddUb0KI7wiZjH7RCRCeC/P10qvm7OwfRZjDqd2+gj70X5asnYPjPILYZqQV+HtiSh0eN5L1h40mOjCyJ2lKfuRvKQ/z9yeM8sf17Fk68KvDVhTk36nZ1sEozjnDizNY4FkoXEQL7c7K5Ze0yusTE8qf+w0kIuDydz8Q3UoGT7XYzcskCHuzYjZ906VkF4vVDX/6wEbrFwcwOpbEoDZIwVeFANjy0Ru4Zgrs7Q48EhV+ugm4x8G467JouuOZLhXZx8J80U5Lw7EaFJwdB0ieQOlNw+ZcKt3YUfJ4KNpeCzQcDmwoe628uwlKS0CtOcCAfnu6nsDQDJiXD4Gbw05WQ6RPEo/DaWEHLTxQuT4TDbmFIDj45qPBwb8Fbe2BJBviLFOZfCdEfQv5NMGIeLJgES9IETaIU/rkDvHZBlAYp0fD80AtxIyi1Nj1SkMfAb+by3YQr6RKXgPDtBd8hA1fDa+Wj21BdcUbQLb3bNSjbPoXJT4GUIAy9H2X13yEsBuFMgHEPoa77AJG/B5oNg2adEanfoARIgjbgZtQlv4UrX0LMvQ9lxhvw8S1w7dsoi/+MUAuh23XgKUJEN0GVdhCSJLTujfLVr1Em/x6x/gMoToPI9ohRd5tp6GWsULUZ/zni4MVdW3lj8CjGNm/d4KuOT9NpM+899l19I5FlbJIavClWhY0MAYskNLIBqcvmhG6rf/9hK3/cs40/9xvKjDYdUI3MkI3hEly19AvGJbXgF41Q1CkD5/k0U+Ww5BgcywOXCh8eEsydHEinXGJAWerOGIp9MFWARzeflUaIzoBn6aDPYe1VoIV8Fjoqbj+ExueSYYMNo3gZ5DLkxvL3lR3Z0tYE75NZPJ11GSiggadSoc9L/68+4899B3NFiikG0os3o4iMMi0pSy1NZ0ZD85afibJzPgy6BWwhAdA0DWri9lues2r+suWEtkLzmflLpAjK74OA625JOHQ1HsU1mC2nT3LTqqU80bMfN7Vvj+7ZimJvjWJPbhB0xy+ezwu9B1p2CQ2C9oVTiUUSLpyxqraloUbxQelAltvNbWuWGiFn/zV4DC0jG1dUwk8O7uXfh/fyxbipqI3V6jOAvNzc1xwHSRxGtgC7zdywzUQ/Un0QuLEWQo/NGaZ9Qi0eqXYeXPw3CH61fiU5ms4bw8yw6Eb8AfcGFD37DN0PiXjgc0P2EURS5way5pekXI5y0DgopJky/0jYEIPoHMnPY+ryr3imWwpTnQ8Y3g0NYbgoW/PT9d/RPz6ROzt1PSePoYt//l1aPbRIwsU43oEdZ2HqQW7dtIanjMBIPXHU5ITUYHiYjZyyZAGPdu/DmPMgYj2brhpLfEnMgpCzfDDoUq0l+LWkB7W8/Wz62Nif2ZebxdhvF3L4qlk41GCwr+pIQmUhkUJZXe17LRNFydBI53oJNQ7VIAkm2dmfm839qz7jy16vBxI81b93g6z3g327WJ2dyd+trJDnOqQX1fMWSbiYhjMgSpChVh/auJK1Gem8NXQcfZo0bYS9NHe7dnPeZ+vUa4mp49DK9dPhEp+7ctlDBbpQeGGL4Jd9FEMVUPOrnNsJsCtLkO9VGFyZlFlAkSZ4ba/CI91rXsvFcqeUkF295Atuadue6zuWBUB3b0XRT1ToqjFqBdngkK4qRthDczs2Mp4GT/hnh1CN7HncheD3QFSiaVRZ/lKboIQNLPPpl4c3keJ5nu6t7keNlEGO6veSGG3PzODnm9eyxEqUVr9gX2ClWyThAhuwMzVXvui7sjO5adUSI2zxi/2HlYQubqzd7DTvA1ZeNo1mEdKqu3Ff0m5g4RHTfmBia/j6iCk8nt4e/rbNdEF8W7pFHoddeTCrPcSHCTZlKGw6Da0iINwGqQUwojmsSocr2kBGEcS4oFm4+Vm+T5BeALM6K3x8UMZRgOs6QaEPPtwn0xXDw1uk4STMOwAn3HBbFxlFsXHjVxetO5CXw8RvF3Lo6hsqkgHvfvAfqLQaZc7diNFPQpNSo8BSoUwVgZcPrYd2gyvWU5SD4imCiFhY9ipM/tWZu3Y6DbHiHygznq30PmFvieosa7Dr0fx0+/wjNkyZ2WA5FfJ9XrrM/4jjM2+pi6GyyrhIELBIwgU9kKWW3lKx+o/dO3h25yZeHTiCq9t0uAB6Jrh51VLGJSVzVyeZOrpxX24NI6DRU73MDb1YGjTa4FQRRDl1TherzGwPz2yGe7vBj1fBphnQ/RPpuQCvHoA7UgRrMuUxVmFiC9iQDW3DoWscDE+GWd/CfZ0hvUDgFpJYKAbhGJgAnx8RjEtW2J8v+E+awsJx8O9dMKk1vLxVMOeKWus6GjfglbTu6a3rUXWd3/QbGnCRlTeZ/RZ6Jrg3VnjK+Hb23ehXv4aStrVUCtSmP8qxHUZkROJaQ2Em5ByBtkNRck8iVrwAwx+CZl3g4FqUsChEy16IzR9DYS4MvB4lQwbZ6ArFuYj0jSjtx0F4LGTsg1P7ocMoCItAfP4UytVPV463vROKUxpflr2u/fYrft6lFyOat2qgcRK0m/sBmybPJN5K9tRAmDf+aiyS0PjH6AwtNIOv5Pm83LFmKUWaxofDxxMbeMGN85EhUm2km4eAXTmZTF/xDYsmXEnrqGgjTG1jvSRJ6DoHDl0juG6hYFCiil8XLM2E5wYppOfD4Ty4oQs0ixD0mauwZBI89J3g/cthwkKFfw0XrD2uoDphfHPBo+sVesdBlzjBiGSFm5bDPZ1MSUKnJrDuOGzLVbiqleCPOxU2zRBkFiuM+BrWTIFXt5lEcfYR2HJtY0Wubtrl0zXaz/2ArVdcW+K+G1qykfjKvbiSHAsKzP4xXP0qypyfQNcbEMc3QM+rYPsnENcNpXkvxA8fQ5uxiLT1KP1uhOXPwYiHEamSIMQj8o9Cch/IT0MpKET0uRJl8eOIUY/C6tdQelyLsv7viJveh7kPQa8bEZvfQbn2NcSC31VCEgJz3dkXxV422qkQfh5Z9Q53dBlNz6ad6gbAGpQy7OvZvDt0LJ1iE2pwt3XLpYCARRIu1FE2+IHO6hPpTF+5iJ937MajfQYZro1B47pAVprGSxKM45/gnQO7eWnvDj4feVmDRFk82yGXJKHHPDgwA57/Hq5sBxEOYWzkHRMExwsUmoYpfJ8puLUL9JsPO6ZjxFZ4bazChIXw1jBYmy5jJsC4ZMGvNsCoRIUcP4xJhqc2C+7ppJBeCF8dMdUXr0vXfTt8dRSeHQJpBXD3enigPQxLEsSFK1y/CLZcd7Y9uzCeO5SXzZTvFrF7qjTkq8yCUyCKvqmkMyp8dhdMexUkSZj5JuL4LshPhSNrUMY8inJ4I0K6hHYeA/OfgauehHm/QJn2J/QFz8HUX6NkHoEfvkbvMhw1KwOl3SD0L/4fSJKQkYbSazzi3Wlw1b9Q0rdD9/Hwvxth5r8RC5+vlCRIh0w1bCSoZdVt6XmHScy9FiXuEezRFVUr9TViVyz7kqe692VIsxb1VYVV7gWGgEUSLrABCzbXr2u8sHML/z64h0+Hj6df04pWbo3fEL60hR8c2M1T2zfyQv+hzGjdvlESG+kC+X+bBH8cqCDjDTy6AXI1+OdQwYlCOO1R6NdU8JdtCuty4PEe0DsR3tkNt3WF57bD3R1hfzYoTugeI4z8CzPaCZ7botAqEjwCxjeDXI80UIT/HIapTWFXEfy8Gzy8CfpGCjKFwsPd4Kffw+Bo+D5P8MHoxps75JxfMwGLT6Tx0q7tLBx/RZUSMr1oqUyHVa46FWbfZUgSmHMvSvPBiMyDiDEPoqx7DUY/KnUVsOxPECPDXUbA0Dtg9iPQ60rD6FA59gPCK1UMtxnBtVj1Jsqw+xHLf4s+6lGUla9Ay76o2YfRr3gG5bMHUVr0hoJsxIRHEPN/W4EkSAmfLpyoEWUNE91+H4+tmccf2z6HLU7mbpDsr2EkbDesXMydbTpweet25zxkVgEXBwIWSbiAxjGYpOlYUT4/+m4xkeHhzBt5GfZG5dp49oDuyT7NzeuW08Lp4rl+Q+geL63By1+l8e3PvqY6fLJCc0ziU1OCVru7S9VH5fMXNNAeUofA1b6ov/ywBbfXw6N9g+6ClZThT0f3bisDhyFZm/MTlNH/B0t/C9NfB5tM1WhGPAwGNTLCLPn9KEawI0VmbQMZJEnmNdH8COluaaSBBrweMLJC6ghpf5CVAe36QZgMAW0GbNJ9xdikR0XWUcSKv6NMe94otiREuizH3h7VWapOyPG4uWvNclqFeXipzYfYYm5HjZxUe7DO8onb1izj2uatuaptx7MswXrsYkPAIgkX0IhKneuSY2nMXLOMl3v24+6ufcwlrmEOGfWLlNER6XUueG/vbp7Zs50BMXH8ukdfejdJwlbSycZHEoxdI9D+2p74qicTZe8I5rOokNei+oLqd/waoPRfrFvBiKbNuKZ9lzPWZqocgoBIl0NjZzY/Wfs6DP2J+ZkxpwKfGyXK9M5BG56ga6pZlcwTIalf6AZv0AVZRPYJcOdB846mh6MkEkI11IHGszIiZzCvecg4Gb+GDUNRY4xy151M58cbVjKtRQq/7z8k5L1uuBf8x+tXMLlJMtd26NwAI2pVcSEgYJGEC2GUZIZEzc/TWzcw/3gaX4yeTEpMtJm0xlg/GrO539kBrAnBh/t/4C/79lDs9/BYzwFMTG5JsnSVbEQbYpWGoaHhL88OAuupcgjcsfIbbm/blTGtUqrERo6H7l2HzZ9rbtCSH5gWvCYpCKR0r6wAmTlSSgFM4mDkkgy5zSQJQcIQnISySCEC3wXqMAicvFVVjBTySKFFgICYBcrYDDqoURA2nL052fx2y3o2F+bx1oDhjEhuVdreBp4Fd65bztSmzbmmvUUSGhj6RludRRIa7dCUNkwmsrl+xde0iY7jfyMnltPXN7KTdZ3gWZYF7M45zXPbNrE0K4OeEVH8pGsvBjdJokUjCzFdJ12vevsro5cue+ItEWXUbxPOc+k3LV/IT7v0ZLjcRMtdZWaM8COKl1YaArmUWJsFlI2VECw0VLoQ/ExiLCUDMsKjKSEIlmVE5A7hE+bnASJgCBZMCUVJrgag2A+AUcbgAAAgAElEQVRbC1vx9M797Csu5rGO3bmza6+S0OTniwffvvZbZiS3ZFrbhvOoOM/Tyqq+GgQsktCIp4gmdBYdTeXa9d/xRq+B3NS5e+N2aaxnLOVCu/rEUV7es53NebmEC8GPO3TjilZtaB4eQawrrBIhQ0MknK7njlvFGwjctWoxN6d0ZFzrttUiorvXo2rZAUlbtbef8w0maQsQCEO8EKQgpSTDo+kcKdL435EC/nGkmKSoGJ7v0osphv6/4VQKZ+rs9SsXc3ebDlxmGS6e85y4WAqwSEIjGcngQcQwelKk9byXJzauZUnmSb4cO+USOzWfeVCCp6y0gnz+u2cn/z15lFPuYrq5wpjVoTMTkluTFBZOvCvMkDCXSptLF+LzdVJrJNPtgmqGcQpXFB7esIIhCU2Z1aFbjdqvFX+DWmGzrtGjNbhJQSiBxF4yg4MxyVRDkWB4SgTEDNleOFDs4+PDhfz7eBGJYXZuT3bxQM/LiAmLLyUThrTh/NoXSTo9ZemXPNOzH4OSLBfIGkyCS+IWiyQ0wmE+WpjPtKVf0jE+gY9GXlaFT3gjbHh9Nymws1dlB7AvJ5uPDu7m/RPHOO11o/r8XJ3ckkmt2zCwSTKxTieRDkdIUqD6brBVft0gYIr//757O/lFhTzef1iNJGrCfwS8u+qmCeVKMVQI0t6ghHeq+HRBgVeQ7tWZl1bAv9MKcSsyGqeNx1PCmNU22kjPrdjagqtLwKCx0QgRjB4O+eoz3h8+lo6xTeoFN6vQCw8BiyQ0ojGTm9+iY6nMWLucd/oN5toanpgaURcavCmVEwapM1aR4t2lxw6xIPUgC3JP4/f5ydH8TIyJZ1yLVoxs3oqUiGjCbXbC7HYcaq0yMzV4Xy/dCk2V0YoTx3jyh818O/7KgHTI9Dk4k6ReuNeCbhox1uXl1QWFmiDPJ1h5ys0Xx9zMyfYRY1eItwt+2iKCWe2jaOoqnVOGRESNQHXJ4EmqSXSC7W8koq3kz97lwLQbiLQ76xIuq6wLGAGLJJyPwatwIhb4dJ1HN65iwYljfDvhKppHRJ2Pll18dZZbfKUb6bbTGYYr6dwTR9njLsKja7g1jX5hEYxv1oKBSc3p1ySJOIcTh03FqdiMWBQVtcY6QphZBBXTnN0QHxtbWsBls0SNFES2wgeWoKimk+5gXg5Tv1vErqkyuFAlu2plG60cD/dy+T+jmlLXRBVF0aWzA4phjKiVGCKWGCQKkGTAJASwI9fHigw3X54oZrdPx2mDRJvCNQnhXNkqjBFJpRkmZV1SBSHVHUHDRUXYEBGjUWQkrUZ4nSwqZNyiefww7aZG2DqrSecLAYsknCfkQ/eKTHcRE5csoHtMHB+Muvw8tegir7bEXTRwequku2n5uaw+eZxVGcf4OiOTE2g4NJ0CoSGzSkyMb0L/Jkn0SmxKj7hEYl0u7MjU0Co2VcFmWLSHXEEyGCpRDiGIQT9904G1LHsw8hCUL+8iH6LquufXdRI+e5tTM27DaQ+QNsPFMGgoaLo7lpC5EEi14mWowhviYWBDGgbr8p+u4Eclz+djV46fTVkeVmUWs7hAw6EINFXBpahcFeNgUnI4w5uF0Sqi7FgbpNAgiCqK0MoYTJokwYYSPkIGRqium+fleynVWHz0MO8cPsB7oyY0Lh3IeUHEqjSIgEUSzttcMEWo36UfZfLKxbzTfyjXdehqtKaRSB7PGzJ1WXF1WJrfl94V/LvUiMx0X/NqGttPZ7D1dAYbT5/i26xTpPp96LqOJsPryv90G5NjYugeF0vX2CZ0joknJSaWZuGRhmubahi6qahyUzPc6APbmVFpqItc47B0r8txOLeySsfnVxu/o40rmgd69jWLNEQBAbwCXEGOl/xPfmXETUBwylPMvpMr2JPjYUeeh/XZHjb5pEOjjktR0FBJsgkmxbgYmuhiQKKdbnFh2Et8G6V6QCvjfiwlELrh2qihBtQHpf0sbbOuKNicY8yEHY30kjg9uWU9LpeLJ7oHsG2kbbWa1bAIWCShYfEuU9sTG1bxTtpB1k+aQfOAz3/5Ta26Te48Nv/CqLrk5F7FybwWAFeXUVN+fyA3h905mezLzWZ3bjZbs7PYKI0oAb+xoZRedgSDwyLpEBVNSnQ0KVHRtIyIJjkiiqaRETRzRWJTZRie4MGulDxc7DQiFClTd2+S551Zmcxcs5SPhozmeGEhMobIofxcUvNz2V1QwA6/t0SSEJQqSElNb6eTwXFN6R5dTI9YhW4xdppHSjVD6BUq0TE/N6UAZoyE0ngHgWeqmTtGbgbNgRo52pQwBFVSjfTNuXzpAiO5kxHMybosBAIIWCShAaZCaOAbuU/IlLdDv5lLSlgEn42ZbGwE1nVxI2CcbQMn22CoHnkKlXrgo4V5HC0q4FhBHkcLCzgqPysqYpu7iMLABilVD2YMQDOQT2AHMzZE+U9mEejkcJHsjKCJ00aUy0mMw0W43UGU9OqwOQzPjgibjXC7HZc01rTZcKimwaZT/jP+thmnYnk4txuboBli2GaX0QOltER+KE/pwpCgyNO1z6/jQcfn1/BqfrxCN39qfvL9OsV+H4V+P0V+L/k+L4U+H/leD6c9HrK9Po563BzWfMYm7AuEPpb9MyMlljAkQzXgUmzYFMHoyFi6x8fRLiqOlKgoWkbF0DoimtiwMBMTo92mhEZmRi29dIQvFeHdU2orEGBhpS6NtZuLQdsDM9CSvDTz//YU7M6auWvWrsa6v1szVDnvcGLGrYTby5Onuq/PKvHCQcAiCQ00VsbGIARbT59kwvJv+FPP/tzSuWepyLmB2mFV08AIGHtqQG8eIApBo8aSloQEzTQj8wUCbQeSAUlaIN3tjKKUANmQQnRhZBNAFxqaplCg+cjzesj3esn1usn3uinWNIr8fvL8fjw+PwW6l2KfD48uN3INr+7Hp2kUawpuXTd+l/W4hdTSCzxSPWLo7s3WSlWJPBFLWwzDDgMbLlUxDDull0i4qhCmqNhtqmH0GWl3Ea3aiXQ6CDPIio0oh4NIp4tYZ7jxe6zTQaTdYdh0yFO/ucmbGMifxqdSVYNqvC8rTxzlvs0b2D55htF/M+KhGbdAttkMqRzKC4L4l+bYEMKP4t4Aen7J85pRV1lpT9WzJVSMYAtkZTfJAcKFEjHSzPdgBFhqnFdoD+an7uO91IN8NLrhkkk1TlSsVpVHwCIJDTEnAm/ji1vW89KBH1g2/sqQDIe1kHc3RFutOuoWgZA9J9TrIVhJBfVSwBjCsLAP8ZIoZ9cYCA1snpBNSZUsqWqJlNGMEvW9STRKyUpIK0LyD5TkBAn9ugqTtpJbStQ70ltARRhGhaXeHmaDzRN+GRPScpGEzABKpVlJQlU9mi4Y8PlHRlrxSSkyj0Pp1l6GHJzx1Qpashaje7ah6NmBnlVUOVQ/IUzcdezYwgaZORnM/JDl6Ur1RTXQHeWziF6z8htuS+nA1Sntz29Epwbqv1VNzRGwSELNsTrrO+V6N3bJAlzCz6ejpxDjCjVgskjCWQN7AT5YnV1DpV2qaopcJFPnbLqxPy+HkUu+JH36jeVymZzlpJCeD9ppdO8+FIprXIgQdlRHR3A0B0WmmL7AVIcC8v0e2sz7kNSrbyLa2TjdM2s8INaNdY6ARRLqEFLztBYQFwf0nEfycxm79Evu69CZn3fvZ7jLWZeFgIXAuSPw6q6tvH/kIKsnzahblyCZIEr4pdIFtHx04caGVMNIW40whC0akCG/HQFicO59OR8lSPsWqcL5/eZ1FADP9xtyPpph1dnIEbBIQp0MUMCYzAisUyqPfX/vTu7d9j1fj5jAsOSWpqGU5YFcJ4hbhVzqCAg0HabL+CJxCbwwcERZ9UydwCPf66BpaEiBQZVKOffZOqmyAQsx7Fl0QbvP/8eycVfQITauAWu3qrpQELBIQj2N1K3fLWF39inmTLiSliEpjS2SUE+AW8VekggU+/0M/uIz7mzbiZ/36V+HGJihvc0r+NaaPy+md/jprevI8nj56+BR5fpah1BaRV3QCFgkoY6Hr8jrY/jieYxq0pQXB44gzCb1lEHjsovdu72OwbSKsxCoAQJ5Xi+DvviE29t24LF+Q2vwhHWLROC0u5geX3zCpskzrSyz1pSoEgGLJJzF5KhofGaeLdaeSGfa6sW82m8oM9p0sOIfnAW21iMWAmeDgHT7HPf1bPrHJ/L6yIkBF8iL4cxfVopRgk0ddO3KZV8yo2UKd3XuYSlBz2bSXSLPWCShjgb6hc3r+NOBXSwefwW9EpLqqFSrGAsBC4FqEQi4S/o0wY/XLGZnYSHfjptqBJG6sHUDphF0qbtq4G+p8hA+VF2GntJRZEhoxYGCoxxUoQE4QkN/wz93beWzo4dZMH6qEVjLuiwEqkLAIgnnODdk5LkZ335Nsc/Nx2MmE+cqTeBSzvX7HGuyHrcQsBCoDgEp5Xv/wB4e2/49f+47iGvadg64SNbB0bu6yuvw+5K4FngR/pMI/TRQjKJ7wEhUFSQQZgwKGXNCyGBUihMFF4oajbAnoagJpfEojIBTsCUznSnfLWHTpGm0iJCeGtZlIVA1AhZJOIfZcbywgAnLFnBd6/b8tvegQDI6M2KceQSwpHjnAK/1qIVAjREwVYDydvPt25uTxS2rlhAXEcn7Q8eSGBYe+OoCsAsSPoT/CGgnQZfOiaURuWq/pNhAjQNbCxRHc9ILC+j1zTwWDJ/A0GbNrYWqxjPs0r3RIgk1HPtQqYBM4zv/yCF+/P1K3h40hitS2tawFOs2CwELgfpHwNxKpZTvjf0/8Nttm7inTXse7TOICEdosKDab7l13/aQNsgQ0b4DoJ0KRNQ899rkkSXok5HutjN8RTp/6TeEaW06lRKEMvm1z71Oq4SLCwGLJNRyPGUilGe2rOWDI6l8OXYKHeMs3+JaQmjdbiFQzwgET95miOVMdzEv7tzMJ5LYt+/Cg916E+V0BaNDB4UP9dymssWXtlCGyHaDd48pOahTAaTZfxkE6nC+j3FrMvhzt3imp0Sh2Nui2NuBkfyqMZClBoXfqqwWCFgkoRZgFXi9zFq9mCgU3h4xkXBHeUOhWhRm3WohYCFQLwiUbnnBqEdm0goZ/fSve3YyJ+0Q01un8LPOvWgXHWfkkTgfTMFITuU7jOI7GMgcGTRMPPfWGLk/DM2KYEWGl6s2nuajPglMaiGzZAZULkoEOHuh2GLOS//rZfCtQuscAYsk1BDSXdmnuXblIm5o05Hf9B5Yw6es2ywELATOCwJl9v1QyQKcKi7kjQO7+c/BPXSLjuX2Np2Y0rodEQ1J+oXXSCyFllk3uSeqAPmV3fm8cqSQzwYn0CeusrwMCsLREdXR/rwMk1Vp40fAIgnVjJFcXmYf3su9m9bxzsCRXJHSrvGPqtVCCwELgWoR8Os6S46l8tbh/azPPMnY5JbMatWGkc1aEuVwBTJrBg0dy0sbzkH6oOeiezajCE8diPrNLJtlc2PDsSKNezZnoao2/ts/jjhXNTljbEkozt7QiFNbVzug1g31goBFEs4Aq1fz84et65l34jizR0ygfWx8vQyCVaiFgIXA+URAkOPxsCD1IHNOpLEhM4PBTRK5skUbhjdNpmNsfMBzKSR1daC5oRRCivZDfJsqdkiqAKQro2cLIBNI1cUVsDsIWFb7NHhlfwF/OJDLi13iuKt9ZMDrowZ1qfEorr6gNDbjzhq03bql3hCwSEIl0Epd4Wm3m9vWLCPGZuc/I8bjtNkvtCSw9TZprIItBC4uBKTxoGKcxuWW6/H7WZ6exgfHjrAt6xSnPW4uS27FqKTm9I+Lp0NsAhF2e8DeL1SiEBK8qLJ1xZ8N3k2gyIySAsUwGih1b6wtpkGzRNnqfJ/gw7Qint6bx9imLv7RM55Il4oN3cxeWaN6JADRKGEDA9ktLwB30dqCZt1fawQsklAJZDuzTnHDqqXcmNKOx/sMLrmjYjjmWuNtPWAhYCHQmBCoYLtQcWM8XVzE0uNHmHcqncN5eezPz6VHVDQDmybTL74JHSOjaRUVTbNweWqvZGOVdYgChHttwECxDrQMsiQBW7O9fHy8mDeO5DMpKZIXukaTEmU3KIEa5Cwy2FIghX1V0JsykABhURPA1Q/FUD1YRKExTdfz0RaLJJRDffbh/Ty4eS1vDhjGlJQO52NMrDotBCwEGjECmhDszMpgY0YGy3JOc6yogLSiQrLdxQyIi6N3XFPaxcXTLTKGZuHhJIY5iRfrsZWoGGopQQgQGZ8uOF6ksSvfx5JTXj47XkRSuI0bksK5q2M0UdLZSlFQqiEENYLW3hLF2bNGt1o3XdwIWCQhML4eTeOFbRuYffwoc0ZNpF1MnOU9fHHPfat3FgLnjEBQuij3cb+m8UNWJjtzM9l8+jTbiwvI8rjJdhdw1KvRJ8JOpwgbrSIdxuae5IImdpUwVcWuYPyT5WhCoVjTyfALMoo1Uov87Mz1srFAo3mYSkqknZmJTqa1jKRpWPl01ufcpdICnD1R7C3rsECrqAsRgUucJBiaQbI9xdy8ailRNhvvjpxoJDyxhGwX4nS22mwh0LAIyBXEMGcMMS0wPpPqfZkrQTsC3l2GzcORQh+pBX4OF/lJL9bZ7dE46dPQhIou9JKYRrIoh6qSbIPuEQ46RNrpGmOjY6wLhypXLDPrk5BSA0N4oIKuB+Ii1E3/DWGEzAURPgpFKc1HUzelW6VcSAhcuiQhIMLbk5PFNd99ww2t2/FEX2l/UI4enIOn04U0Eay2WghYCJwDAsY6ERLGydhldUTRUhRFD6wroUaKZ1I5BL+r+p5gTSV3lgRPOoc+hD4aKFioTVClIaN1XbIIXBokoYqNfsGRg9y/cTWvDxjOlBQrmMgl+xZYHbcQqAcEdPdGFD2zHkpuyCIFuAai2BIbslKrrkaEwKVBEgKAB92OfELaH3zP20dSWTx2Em1jYo07LKFBI5qZVlMsBC5kBISGKF5yTi6OjaX7Qo1FDRvaWJpjtaOBEbikSIKkAfk+Lzd9t8iA+eNRkwl32EMgD4oFLYuEBp6HVnUWAhcNAoaiwb0R9QKXIpQemhQU10CwJViHqYtmlta8I5cUSTheWMDYJQu4oXVbftevLDO2YiDUfNJYd1oIWAicGQG98GuECjZpj3iBnzmMOFNKIkrYgBKZrBU/4dJ5A2pPEsrJ5I3NNRiq7Ay4VRDln0G2f84bdiVlf5t+lOtXL+X9waO4rLWVf+HSmeJWTy0EGgCBwJpjmCbqJ8C99ZwrNX2vKmMYihFqORhLUcZvlIGTznxJV0ndsK0MkhYZ+Km6IEulZaooEROt4ErVwXwRfl97khACgk8TRDy+BN8LEynw+Ilw2o0Y5yVXmYilZrpW8yoXyjTwIpzM93Ddvzaz4udDjMmYlu1m+n82s/EXw8o8VeKbLAlKZRHOjLul6kC6Fgle3LqeFw/uYdPl00iJMu0PrMtCwELAQqA+ENALFxkeDUJVUPSgCvNMNZnujJ4cDzaXHUeYjHQYXCoVwz1SaAKbQzU2+NCNXvcLfHl+wuJL09YH10S5TgrFJldBhK6geX3YXXajgGC8pVoRBUc3FEeKZbxVH5OmEZdZJySh4PfjaPvMKjb/YjDN4sLQdUGxT8dlV3DYVNxe3eAH8p8kEcV+Daeq4nLYEELH7TO9jcMcKl6fTphTRdMhs9BHXJiK02E3ypSRzrx+zbAjUOULWCWw8sUEvw4zF88n2+9j8eXTccl469ZlIWAhYCFQ1wjowljcjNN/4TfmKV+1I4RWo5r8Hp3/DviElqNbcvlrIw1SoPs1dKFwdPlxfvhwP5PfHI1is6G5/agu1cjIMGfWItqOa0H/B3rgL9SM+AmOcDvCpqB5NPx+BVe4QtFJD59N/4IfrboW1SbwFflQ7Cp2Vwghqa6lagJK2KDq7rK+v8gQqAOS8C1PjWrFH79LpUOci2UPDWXQy+u5qnMsb207wbEnxzLuH99zLLOYRye2Y9mhLLrEhPP21hNsfmQ4szel88LSQwaTfmtWD574Yi/rHhnB8JfXkOPxc6DQy9YHh7LjZAFPfb7bIAfyBdj56KgzDkWx10f3Lz/m+tZteGHAyIts2KzuWAhYCDRKBIQPCpcYUoSaXyo739lNYWYxe+Yc4vrPp5K2+jgrf/u9QTqSuseTdSCPsb8fzPKnNxDfJo7Tu7O48p0JzL5mIZ2ntSOhXSz7vjyEKyac6JRI+t/fnQ/Hzye6QwxRiXZiU2LY99khxv11JNve2m0IWrP25zLptZG0GNysZnYTShhK+Jiad8u686JAoA5IgqluSHzqWw4+OpK0HA/3vLeV0e0SmLc3g/dv6cM9n+3iw5t60DEpmh/SC3jx6/18l5bPf27ozoNz97DqwSFEuGxkFvi4/J8beOeGnvxiwT4W/WQAW4/l8fD83dw7LIV9x/P56fh2dHh+JRm/HVvpAEiJxO7sTAYsmc/8YeOY0LJt6X3lbRVC/j7DV8bz9f19SSPruyILgzoXlway9FY5hMb8qaAaM5XI5rNmap3abCvntvoEFdgVazxne6Bza1ije1rXslADVv0VBriyQfMdQPj216gfoVjPvXYR/e/rwb4vDtO0dyIRTZzsnZPKlLfGkLY8nZ3v7mXQI71YcMsy2oxsxrHNmYz53SCW/moNNy2dgc2lsPvDfWx5dzeRceHYwuwMergPTfs3QdEE7lw/n06dz81rZvJ270+4de0MUpcfI23xMca8NLxG7ZU3KeHjyqWSrvGjF9+Nwo/Qi0GNqqD2btj3uX6hrTVJCO28tEmIfHwJnhcm0vSppRx4dBQen8Id727i058MJLvQR3Ksk4F/Xc+cW3rTJiGcrs+sYOOjw7n9wx38bGgr/m/hPt6a1ZMOSdFkFXm57PXv+eTmPlz//jY2/2IY83dk8vHGo0zv25wjJwq4e2wb2j9XliSYbTJtEP65fSMP7drKganX0Cqy1P4gsCSXGAKV/9skAjpKSELouv87EFI1sB2YhknGqxcgImargooUUwlTPod9aRvNb+vu70sRg+per8qtZ0zczfTCoSMYKM14yJyPJQwzMMxCl3Y00ngsJJpekCgEiERZY2BTf6xIPbIUMIcykqARmnxO1lmT02vVHSppasORlerQP0/fBziUXjgHPfsPKGGXoSQ+Vwbe0jEKGWeZd8G9GlXPr1XD81ILmD1tIc2HN8Wb58VboNHnrq4cXnycCa8MJ23ZMXa8s4/hj/fjm3u/45qvruDUriziUmL5ePI8blg8g4+nzmXaB5eTd7iA7/+ynbjWUbQc14IOV7Xh48vnc9WHl/HxFQu4ff11vDtgNtctnsq++akUHM5j+JNShVCt5aM5P1x9UW3NatW/i/VmvWAeWvbT6GGTcDV9rgKHrLTfZdhDEHPj5a0XmELXkrMlLrUmCWZPpF+PisxK5vq/JejPT+RXn+3kn5vSSf2/Mby+/BAvrj7G1HZxvH17Xwa/so7Zt/QhpUk4N761hWVpOfRKjuTJ8e1JjnNxxRvf4/PDJ7f25e7ZP7DlkeG8u+YoDyzYS7+mLpb8bCjztmdw+FQR945uS9vnvuPUU2NL7SDN3Y2ZS+eTVlDMsinTiXQ6S05mxmYrTItg89aKf5sRVUs369C/jcJDvjchMHWQJVc1f0vbCyPGenAfqeRvI1Z6yPdl/g6QoOD3OhoKtpL7K/5tkodSU1FzzEoxMH2zSoycjPz2lxgGcgzky1nFrqhrOm+2uYseN4/CU1jEqa2p3LDiRWP+yycVGW+/BFCF3AMnWfKTv3LN4udKSMLbvX7GDd/+gbAmUeUWguArG8znG5jEMmFvJR5DJTkCSm4LPqez+Y+zyTp0glEv3Mnej5bT8+4ppfOyAikItZkXLPrJP2g/tT8drh5ibhMGUamfBateVsF6LFTPeQOR9wa6xEOxYY9/AiKuMCU/5d7fkve6aHFpOugatm35UxsIi3Yw6JG+Brd8d8indLm+PUVpxYx/ZQT5R/KZfdVXDPxlP/x5fjb/YwcpE1ox7q/DeHvQJ9y8ZDrbP9zP5n9so/O0tqQuOsqPVszkg3Fzwacz8dUxNOvXhPeGzqXPnV2JaB3FisfXEZEUxtX/u4yIJmE19HJQEPZ2qM5ONezZxX2bnvM3tPy3EXhQlFiUhKexh088s0gweIAwDhhBfAJeJoFcHI0NtbMnCSXMx2TSsu/SuFC+T3Jr0nSBzbBWDGzKwROxMF135ItWcpYK7MEle65xWpL7sEBVZNllN7DylE0aELde8BHXJiXx8uAxqOSgnZiFUJrhbP4eushFO349Qo3H2fx/6KIA7fhMhBKDs8WnCFGE//jVoETjaD7HGHR/+lQgHEfz+QjFh/+4XHgdOJp/ZWwAvuOXG/12NP/GaKvv+BUgvNiTP0WxxeE7eRv4j2Fv+jqKswP+048g3FuwJfwBNXwI/pznEYWLUWN/gS3qCvz5byHyPkSJuhV77K34i+Yhsv+GEj4Ve8LP0Tyr0TOfBOcQHE3/gObfh37yPoStI87kf6LpmejpNyDUljibv4OuZ6OlX4dQk0MwuAahJoZgMB2hxF2yGAg9H3/6DOyxD6NEhWysgQkmScIbre/klu//jPQx+9+ox5g+7wkWXPssfk1w1YcP88WNLxHZIoZmvTrS56Er+ezyp2k+vBPp6w9w68a/8MHgR5i18lkWXPtHHDEOCtNzmbX8ef7b7yFi2ieSvfcksW0TKUjPZfCvZqL5/ez9aBXhsVHEdEpm5B9uNVrz/R9nc+Cr9QY/b9a3PVn708g5mMkNK1/gk8ueIKFDM8b/6R6+vPVl2k0dwO5PVqN5/bgiXFy7+Fne7fcQXa8Zwr5567llyyu8P/SXxKYkkLE1jbF/vpOsH1I5/OUWvMXFDPrlNXS5/sw2P41tIauv9gjtFFrGwwj/DoM8CVsr8522JwWOGwEibuNGpSYAABqYSURBVDIsRPE3tW5KkJtLyZS5KpqG16WXIXoyP5dt0DVjnTUSPMmlMsAXpbGjYivN+2CYUYZsRkY9AdIovR2MnBJVeof9//buPDyKImED+FvdcyQcAXIRkiAgh8FVEReicoiAgiKgrCLqKiiIB4oC6u4nCq7icoiKK4KKgOiKCoIHAqIcghcsogLKIbsGBRJICEkgAZLMdNf3dPUEknB1CAmQfucfniE1012/6pl5u6q6+hjV4C2kS8BIIwNGxoOQQWuISUBqMfDFzQb0iKMC7t+Vgw+7jVS/HVHnJ6DjS/ciPDoC7172KG75eiy0Eov7le1Q2r8rCwv7voTenz8D0zAwI2kQ+v4yEZ4wn3qj0j3jTt/9JEOC07evnHLWmdfStN/RKaGRii6mkQkjrQuklghfwjxIMxvB1M6QWl34Ej6DNPchmHolrJuX+BIWQ8o8BHdcYYeGxOWQ8iCCO9oCohq8id8AsgCBHZersThv4irrugkEtls3g9Lgrb9GfXgDVnlZAE/8Ejsk7OwFBLfDU/d9CF9TBDPuhSxYAz36ZWjhbRHMGgG5fyG0OiOg17gBxt5XYO57EyLiXnhq3QMjbzbM7HEQ1W6EJ+oJGAeXw8wcBvjbwxv7L5iFG2Gk3w7pSYKv3rswjXQYaddC6ufAF/9xMYN4+BLmFzOIhS9hEaS5F8HUjpBaJHwJS9xpIHMR3NEh1Aa9jjhYTTOIKfXvhq+aH2bQxCWDu6FB1z9jUf+Xceu34zDn2hHoMmUwasZHY2rTe9Hny1H47K6XcOtX4zGr0+Po+vpD+OQv/0SXKYPwxaBX0bhbK6TMX4Mu0x7E/D7j0W/9K/is3wRc/EA35GxJRe6ObLQadj22LlyNXz/4Dr5a1XHtW0PVfn0/9gMc2L0XycNvxszkR5B0SztkrtuKhA4XIGfjdjTv1wm1z43H/NueQ+OerRDYl482z/TFlMYDcdfPE5H67Sakfb0e62csx1X/GojfPv0Pus4YhkUDJqLp9a2xatQs9Fr4FPalpOP78R+ix5zHjzKPwjoR2AcEtgFadQhvI0jzABBIUZ8N4WsGaU3cK/wVEB4IX1Kx5zqErzlgjeMWblZn5vZzA7Jwk33HQd/56ixcFmxSny31d2uYpWDjoedqfYCCDfYph+98e72AEs9F6LlU2xfCA7NwiwrwwtsYQguHGdgKmPshPOdA6BEwA9sBcy+Epx6EHgVppEMEM2EKXe2vOq3J/wHmvomqLTR4gLAO0KKfKzUWbd3QyV7N9VQ+7J99e50DlUVCl0HaXdR2oDDFiRduUr2GpoBUQ2FlfYTChx4D4b/kmC+Wxh7I4E4ILUJdLmkae9X3oNBqQngbQBq5kME/IER1CJ91/OyHDGyFEOHqZMoa45eB3yCEX31vSrMAMvBfiGLHl7SOL3ig+ZPU8WNaxw80aH7r+JGHjgf7uXU8WH83oPmS1HFZdDxoviaACINZmALIA9C8DdX8AjPwB2DmQvPUB/RaMAOpgJl96PgwA7sA66RMhEGT+fYdOQvWwNj3KjTr0lcr7Pk7wRM7zv5xLjYfKS8tG++0Hop+615Gfk4ePur2DG75agxWPDYN10wfgm9G/Bu7125Fu9F3IPaSJtjw5hfYMnclLnuyDzxhfqR+9QsuHtwdS+6bhM6vPYg142bj98Xr0PqxXoht1QzfjnwbV00ajDXPz8HWz39E1zcGo1ajelh63yvwVPMieLAQHScOguZxflVLlQgJoZhUrPvGhLQa0voi8ljjZ0XPNQhPXOj5ztDfj/ZcQgbS7C8uTz37DKHEc0BaB46V5D3x9uaDaepfocfZaT+Yrg5MoccAwgtpZNpfVFokoIVBGtmAPAih1Qa0aiq4wMyDEDUBvab68MDMUR8m6LUhrYPR2GNdKArhiYKUhYCxG4APwhNjf7mqOntCdS793DI4Xp1L/90NBgZkcBeg2qD6EaMOargh8U7cuvJ51EioA83rxZ4N27DkgdfQZ/lofNprFC4dcSsim5+Daefdhz5fPo1Prh+Dfj9PxszkIegxZzg+vO4ZdHtvGBbdPgE3Lnoae9alIKZVM7yb/Aju3PwqFt7+Alo+1B3Zm7dj3++Z2L8zEw27tFSzVVIW/GCHBAGsHjMHvpoeNL/9aryTPAy3rBiDA+nZ0L1erH5hLi64oxNqN43D/FteQOOeLeGvUQMXDeqBqY3vQfvRf8W2xWvRdsydeL/933HVhIH48dX5uGHeCCz86wQ0u7kNVo+bix7vPYa9Kbuwdsrn6P7eY0edSmkeWA6ZOQwirD00K6xaX8Dpt0F6m0O3wmowC0jrDOmpDz1+HsxgDmRaR0CPh56wAKaxDzK1A6DHQk/4HNLIg5naHtCioCcuUT8S5o42gFYLuhXYzQKYOy4DRHXo9b9RocO0AroIg15/JSBNGNutlQA90M/5Xn0Gje2t1f/ricvU+xhp3YHgTmj1ZkF4m8BIHwAU/AQt5hWI8DYwM4dDHlgELXIkRI0bEMyZCJk7HZrWCKb5u/qSt3o51dJG1pBdaMAJvgvhjXur2A/mqQ4JxXoFhIBpGtA0DaZpDV1aPQHWJeTGodtUH7myY8lR6ENrLBx3fZljhwf1/podEo41byWYtxAy+wno4TdDi3oc8uDXCO55GHpYN2jRz0Lmf49g5r3Q/B2gx0yALPwZwYy+0HzJ0GNfV4EgmH4zhOdP8NR7BzKwHcFdPSH0hvDEfwQEdyOwswuEFgtPwufqxzyQeoU6PuwTugACO6w5FiJ0AqcjYB1fZh688csAvQ6CO3tCWidwcR9BeBsimN4PsnA9PDEzIMJawNg9FGb+cnii/gURfgWMrGdgHvgIntrPQNToAXPvKzByp0N4LgOCq9TvgDXabE8/DgU669LXsHbwxU4sMSk5NzULM5OH4Z5t1vGl4f22j6Hza/dj3vWjcdXr9+PHCfNw5cR78MdnPyCiUT1seudLXDbyFszvPQ5XvjQAG99egWvefhhTzhmgvgPm3TQWveY9iU1vLUFSv6vwUY9n0eG5vlg7eT46TxyEd9s+iv5b3sD0pvfixs+ewoLbXkDPDx9HrXPjjrPGUMljoIqGhNCcATXcUdS/Fvr3GM9DIxz20Eaplcgq5rndEOrDVnyNqbI8L32riRM9L5onc4ztudGg9JUJxT8e1pfx64n90XfNi6geH6nGobM27sDS+1/DzV+Nxv6dWZh77UhIoaHj+P6o3TAaXwx6DYW5BagWGY6eH49U3fx9VozB6mdnYftXGxGX3ASdXr4X05vdh/6/voqFt72IS4Zch8xfdyDvt0z469bApreXo865dVXYvG7239QBYoUEf4QfLR7ogS3vr8Cqf85FRKM66D57OJYOmozz+3ZCnabx+PSW59CkRyv4a1THRYO6Y2qTe3DjgpGY13ssopvHI33dNhVwlj8yDdm/psJXsxr+PKQnvNXDsOL/ZsDj1dF12kOIPL/BUX8tzPy1MPe+Bs17IbQ6g9RZl5k9FppeH1rkcEiZAyPzcWhaNLToUSr8Gpn/ByHqQI/5p+qxMnb/DUJEQI8Zq4b6jN2PqTCsx4xXYdjYPQzCCgExLwIoRDBjiOqp8MS+pM7sgxkPKxtPrHVmbyKYPljtq6fuJPVvMP1h9TpPzPMq/AV3PwWYGfBEPQl4EmBkTYAMbIFe+0EI359g7H0TsmA19Jq3Q4S3hZH3keoRsAK9CvPq8xKALFyjhlLt8/kweKInQYS3rJCQUDSl2Z4jYm/C+pEO7A/gk95L0O3NK5GzeS/i2sTikz6L8Ze5XUPDDuqX/Ih5EdYwRtFE6LL2IRQvL/VYaP7idS75bubBVTD3/RsiLBl6RD+YBetg7p0C4b8Yeq2B6qzfGssX3vOh13lQ9RoY2S9AeBpDj3pEhQIjawyEngg9ejhkMAPGnn+oUKDH/APSsI6v4WoOgB47RvVkGbsfgUA49LovQsogjIzBav6VJ876gdbU8QSjAB6rvBYBwxq2De6BHm0dD/VgZj0HWfgH9MghqvfCyJkMmb8Beu27IfwtYeT+G/LAKmgRt0ILbwcz7yOY+5cA3nOB4Fa7J0FYPWg/hIagDGhWz0fMTOj+ZoevppJAbloW3kt+BAO3TQV0HW9dcD96zXsKH3R+En1/noi1k+bj1/e/Rt3WTVC7SSI0j0CroTeo74A/lvyoQkLXGQ9jWoP+GJAyFeunfYENUxahWmIUrn71AXzcfRQaX5+MyKR6OO/WTpjSYADu2jQZb513P/qnTMHsK59Al+kPIfK8BMeHQdUJCaWrXHoq58lO7XRMWQEFT1SH8v69Anb5lL9leet4otef4OLDw12Fh99ILWVbNMnI+oKwxoI9h69ksJ5DDw33ytACO9aPSzB45Jhj8YHiEJ41l0D3FXUHHj6bVD8UoaXypGlC060yxScihmbaFw+DRePVgWCoi/HwOaA1blnU7aheYq0+Zp0yH3ehstBOnsi1vH8/5QfSyb2hmmt1YAlkznN2b6D1E1z9Nmi1BqqhipKz1CTkgbLPSTjanmVuzMaPE9ehfvsENLmhIX6avAHV69WAr7oHe7bkwCww8eucFCQ/0gI7Vu1C18ntsX97LlY8vRqJlyfgov5JyM8qxFdP/gdRzWvhkgcvhFCTvg4PUZyUiBanzraP+Th0TlZyNdzSl9Ye8fwIyaPP/yvvYXWi15+Mibl/Ecyc5wEzC6aQ0Gv0gxZxN4RmTVYuOdyQm5qNmclDcW6Xi5H1v12IaBCFa99+FNMaD0TX6Q9iy+zv0Py2K7Bs6FRcOeFufPfUe7jgzo74ZfpStB/bD4vvn4wL7+qE1eM/wa3fjMXSh6bgimfvwCc3jcPNS0fh4+7P4tqZD2FR/0m4YtRfsaD/y7jn92mY2ngg7v7tDczu8AS6Th+MOgwJJ9PUfA0FKEAB9bVuT0ILpsLIfAIysN6+EsjXDHrUaDUX44hzktAZ/6kICYG8AGZdPR9XT2qHlaPXosXdSVg85Ft1WWR861j858V1aDP8Eix7dCV6zrwKs7stQL81N2Jm8ofoMftqfDZgOW6Y2xUfdFuAbtM6Yu1rG9Cw6zk470Z7v4tdfFvm5rbmPGn+5mV+XVV8gRlMVfPEzMD/VP+S8CRBjx5nL119jIdREET6D/9Vf/XVDEed8xKh+zxIW7UZccnNkLHmN+TtzEZcq8aoER+FzA1/4GBGNqIuaoTw2jWRtmojdL9PHaJ1WzdF5vqtyEnZhegLGiLinBhkrP8d9Vo1Qca6rcjdnoF6lyahWmxtpK3cjPjLzkP6TymITEqEt5rfcZNU3Z4ExwQsSAEKUOBIASPraci8TyG1atAjn4QW3lnNYzrewziwFBqsyY4n/7B6Eb4e8T16ze2qAkt+diHe7/wp+v14E/b8sgfLH1+NLpPaYeEdy9D7i+vw5iVzcPs3N2BWp0/R76feocmMAlOS3sOADX2Q+nU6/vtxCjpNaBMa3jyZlTDsaCF8F6ghGz6AYObfgYOLIUU4NHXVWofQwmj25XrHvq/Q2aXHkHB2tRf3lgIUqCQBa/Kxkfsu9Fp3Qmh1HG1VFv6iLn0uzyN4IIhZXRbg8uEt8dOkn3H5E62wZOh36LvqL8jcYIeErq+2w4c9P8fVE9ti4T3LcdcPvTHj4jm45o0OWPHYSty0qDve6fAJOo6/FD9P34QL72yORtfUhxTW5eTlCAn+toBud6O7/WEGMyBz34VWq7+6fN6eOxJa56Ssl5YeD/M4YyShPq8KXa+VIcHtRzrrTwEKlBIo+lYumtxhf/k7WTvblHsgDlqXRZfvse/3/UhbnY6o5rURmVQH277cgUZd6iN/bwF2r89CYpt4bF26Hf4aXuTnFKBxt4bYtyMX21ekIeZPkYhtEYX9GQexbVkqwmPD0aBjvFpbwZ6Df6xbUB9vn63XadCqdQ4VOpmgUT6TM+7VpWY9O7s7cTlqUTTfo0IjwZH7x5BQjjbjSylAAbcJnGAGtHVb54P2Wgllug3zURnLM3ugAtrFWvsg7PIKeGO+ZZkEKnkSPkNCmVqHhSlAAQqcQODgF8WWOa7kb/SKbBxPA7VAlaMulYrcD753pQowJFQqNzdGAQpUdQFZuAHCmvlurcmibuhVNbrmZVg7aFo1DjdU9QO4VP0YElzW4KwuBShQ0QIByAPLKnojlfv+ogZEmLVUfeVulls7/QIMCae/DbgHFKBAVRAoNrJgHvwSwlo6vao8vE1D60MwJVSVJnVaD4YEp1IsRwEKUMCpgJGlbvpjj9+fjY/QughqOWivuqGVda8IPtwnwJDgvjZnjSlAgQoXsG4bvULd1O3sDArFlgP3nKtujMWhhgo/aM7IDTAknJHNwp2iAAXOdgFp7AMKrFvLn629Cdadpf3QwtqzF+FsPxjLsf8MCeXA40spQAEKHE/AzF8NYWYfKmIvY3Qmh4bDazOovfS1gOaJYyO7WIAhwcWNz6pTgAIVKKAmMpowDyyDgKE2VPruhxW49XK8dWhyol4Xwn+cOz6WYwt86dkjwJBw9rQV95QCFDgLBIpu5120PIJp7IEo+Cl046UztQLFV3cUkCJMra4orEmLfLhagCHB1c3PylOAApUiENgCGdhaKZs6mY2UWBdSeCD8yYBW82Teiq+pYgIMCVWsQVkdClDgzBSQ+esBc+cZtHMl7w1hBwUd8LeE0KPOoP3krpxOAYaE06nPbVOAAq4SkAXrAcMOCsXvNVnZSxSVmBth3eBSWgFBCwWEaFe1CSt7fAGGBB4hFKAABSpJQFp3iQxshghsh33vZrOStlx6MxqEkJDSiicmIHx2QNBqVfKNiE9T9blZxwIMCY6pWJACFKDAqRGQwR1A4WYgdNXDqXnXk3sXiTBo4ZcCCOOCSSdHWKVfxZBQpZuXlaMABc44gdA4g5T5QP5qQB48Dbto9WIA0OMg/Bew9+A0tMDZskmGhLOlpbifFKBAlRQwC3+DCKZAwLS7/61bTKs5C9bCS9Z8AbMct5u2blWtqfewH6HZD9aljf7WEKImew+q5FF16irFkHDqLPlOFKAABZwJ2DMFiwUBAzKwEcJIB6S98JL9mx6aVejsXYuVkjCkDl0YoZBQtMqjD/CeD+Gpy3BQZlN3voAhwZ3tzlpTgAKnS0Ba4cA6wy9+TcPhlQpk4DcgkBLqTTChCaFWaizbI9QbYWURocGEDwhrAV2roy6rsLdf1LNQYpWEsm2Gpau8AENClW9iVpACFDjTBNSP9DFvq1g0acGAaYWFwB8QoljvguPKhANhzSA0+94LjAKO4ViwmABDAg8HClCAAme8gHX6b12ymAdp7oVm7gdEAKZpAlIHrLs16jUBPRI4tJSyFQtCExTP+PpxB89UAYaEM7VluF8UoAAFivoApHXvyOJDBMegKTGUYQWIUEio7NWa2HJVRoAhoco0JStCAQpUZYGSN4468lffhAEhNXsYg6GgKh8KlVo3hoRK5ebGKEABCpRVwJ5NYF8KeZzhA046KCssyzsQYEhwgMQiFKAABShAATcKMCS4sdVZZwpQgAIUoIADAYYEB0gsQgEKUIACFHCjAEOCG1uddaYABShAAQo4EGBIcIDEIhSgAAUoQAE3CjAkuLHVWWcKUIACFKCAAwGGBAdILEIBClCAAhRwowBDghtbnXWmAAUoQAEKOBBgSHCAxCIUoAAFKEABNwowJLix1VlnClCAAhSggAMBhgQHSCxCAQpQgAIUcKMAQ4IbW511pgAFKEABCjgQYEhwgMQiFKAABShAATcKMCS4sdVZZwpQgAIUoIADAYYEB0gsQgEKUIACFHCjAEOCG1uddaYABShAAQo4EGBIcIDEIhSgAAUoQAE3CjAkuLHVWWcKUIACFKCAAwGGBAdILEIBClCAAhRwowBDghtbnXWmAAUoQAEKOBBgSHCAxCIUoAAFKEABNwowJLix1VlnClCAAhSggAMBhgQHSCxCAQpQgAIUcKMAQ4IbW511pgAFKEABCjgQYEhwgMQiFKAABShAATcKMCS4sdVZZwpQgAIUoIADAYYEB0gsQgEKUIACFHCjAEOCG1uddaYABShAAQo4EGBIcIDEIhSgAAUoQAE3CjAkuLHVWWcKUIACFKCAAwGGBAdILEIBClCAAhRwowBDghtbnXWmAAUoQAEKOBBgSHCAxCIUoAAFKEABNwowJLix1VlnClCAAhSggAMBhgQHSCxCAQpQgAIUcKMAQ4IbW511pgAFKEABCjgQYEhwgMQiFKAABShAATcKMCS4sdVZZwpQgAIUoIADAYYEB0gsQgEKUIACFHCjAEOCG1uddaYABShAAQo4EGBIcIDEIhSgAAUoQAE3CjAkuLHVWWcKUIACFKCAAwGGBAdILEIBClCAAhRwowBDghtbnXWmAAUoQAEKOBBgSHCAxCIUoAAFKEABNwowJLix1VlnClCAAhSggAMBhgQHSCxCAQpQgAIUcKMAQ4IbW511pgAFKEABCjgQYEhwgMQiFKAABShAATcKMCS4sdVZZwpQgAIUoIADAYYEB0gsQgEKUIACFHCjAEOCG1uddaYABShAAQo4EGBIcIDEIhSgAAUoQAE3CjAkuLHVWWcKUIACFKCAAwGGBAdILEIBClCAAhRwowBDghtbnXWmAAUoQAEKOBBgSHCAxCIUoAAFKEABNwowJLix1VlnClCAAhSggAMBhgQHSCxCAQpQgAIUcKMAQ4IbW511pgAFKEABCjgQYEhwgMQiFKAABShAATcKMCS4sdVZZwpQgAIUoIADAYYEB0gsQgEKUIACFHCjAEOCG1uddaYABShAAQo4EGBIcIDEIhSgAAUoQAE3CjAkuLHVWWcKUIACFKCAAwGGBAdILEIBClCAAhRwowBDghtbnXWmAAUoQAEKOBBgSHCAxCIUoAAFKEABNwowJLix1VlnClCAAhSggAMBhgQHSCxCAQpQgAIUcKMAQ4IbW511pgAFKEABCjgQYEhwgMQiFKAABShAATcKMCS4sdVZZwpQgAIUoIADAYYEB0gsQgEKUIACFHCjAEOCG1uddaYABShAAQo4EGBIcIDEIhSgAAUoQAE3CjAkuLHVWWcKUIACFKCAA4H/B8J8XVcq5JBWAAAAAElFTkSuQmCC;" vertex="1" parent="1">
          <mxGeometry x="70" y="10" width="521" height="391" as="geometry" />
        </mxCell>
      </root>
    </mxGraphModel>
  </diagram>
</mxfile>
